<svg xmlns="http://www.w3.org/2000/svg" viewBox="0 0 500 500"><g id="freepik--Character--inject-159"><path d="M184.64,193.18l-30.42,37,9.51,7.23s4.78-4.2,6.82-5.56,30-25.68,30-25.68Z" style="fill:#aa6550"></path><path d="M278.37,139.86l22.49,14c1.06.74-5.38,71.36-5.38,71.36l4.22,33.59H215.36l4.08-114,21.95-7.49,5.29-7,28.5,3.47Z" style="fill:#FF725E"></path><polyline points="289.99 258.69 282.39 181.54 222.4 180.2 215.56 258.69 287.69 258" style="fill:#ebebeb"></polyline><path d="M298.37,152.29s13,5.75,14.44,17S323,221.23,323,221.23s3.42,3.76-2.18,6.87c0,0-9.77-8.36-16.29-5.66l-6.51,2.7-5.13-35.49Z" style="fill:#FF725E"></path><path d="M219.64,144.68s-4.47,1.6-9.84,9.93S198.51,171,198.51,171L182.59,191.5l18.49,15.11s16-15.47,16.24-16.55,2.8-2.95,2.8-2.95Z" style="fill:#FF725E"></path><path d="M311.22,222.05A14.17,14.17,0,0,0,298,225.14L275.91,243l7.3,10.88s32-13.84,35-16.59c2.33-2.15,2.59-6.68,2.6-8.88,0,0,0,1,0,.12a3.33,3.33,0,0,0-1-2.47A57.26,57.26,0,0,0,311.22,222.05Z" style="fill:#aa6550"></path><path d="M294.71,149.53s-7.54,7.25-9.95,16.55a81.6,81.6,0,0,0-2.45,17.54H278s1.59-28.3,13.33-36.35Z" style="fill:#ebebeb"></path><path d="M235.39,139.3s-8,24.94-7.78,42.2H222.4s5.21-38.39,9.87-41.14A22.87,22.87,0,0,1,235.39,139.3Z" style="fill:#ebebeb"></path><path d="M298.64,224.74a2.56,2.56,0,0,1,.59-.7,8.42,8.42,0,0,1,2-1.46,13.22,13.22,0,0,1,8.12-1.13,25.6,25.6,0,0,1,7.68,3c.92.5,1.66.92,2.17,1.21a3.64,3.64,0,0,1,.76.51,21.51,21.51,0,0,1-3.1-1.39,29,29,0,0,0-7.59-2.76,13.56,13.56,0,0,0-7.87.94A16.57,16.57,0,0,0,298.64,224.74Z" style="fill:#263238"></path><path d="M289.28,172.31a1.69,1.69,0,0,1,.11.45c.05.37.12.8.2,1.33.18,1.23.41,2.87.7,4.86.59,4.11,1.43,9.78,2.48,16s2.11,11.87,2.91,15.94c.38,2,.7,3.61.93,4.83.1.52.17.95.24,1.31a.24.24,0,1,1-.1,0c-.09-.36-.2-.79-.34-1.3-.28-1.13-.65-2.76-1.09-4.79-.89-4.06-2-9.69-3.07-15.94s-1.83-11.93-2.33-16.05c-.24-2.06-.42-3.73-.53-4.89,0-.53-.08-1-.11-1.33A1.4,1.4,0,0,1,289.28,172.31Z" style="fill:#263238"></path><path d="M296.16,156.52A21.25,21.25,0,0,0,291.7,161a21,21,0,0,0-2.49,5.8,4.84,4.84,0,0,1,.2-1.89,13,13,0,0,1,5.07-7.49A4.62,4.62,0,0,1,296.16,156.52Z" style="fill:#263238"></path><path d="M256.72,148.63a2.76,2.76,0,0,1,.48-.58c.41-.42.9-.92,1.47-1.52l.14-.13.1.16c1,1.57,2.33,3.82,3.9,6.46l-.36-.08c1.26-.88,2.62-1.87,4-2.92,3.39-2.55,6.34-5,8.44-6.82l2.48-2.17a4.92,4.92,0,0,1,.95-.75,6,6,0,0,1-.81.9c-.55.56-1.35,1.35-2.38,2.29-2,1.89-5,4.41-8.36,7-1.4,1.05-2.77,2-4,2.91l-.22.15-.14-.23c-1.54-2.66-2.84-4.94-3.73-6.55l.23,0-1.56,1.41A2.5,2.5,0,0,1,256.72,148.63Z" style="fill:#263238"></path><path d="M241.85,137.69a4,4,0,0,1,.62.83c.37.55.89,1.35,1.53,2.35,1.27,2,3,4.78,4.88,7.87.72,1.2,1.42,2.34,2.06,3.41l-.41,0,2.17-2.94a22.39,22.39,0,0,1,1.8-2.29,1.4,1.4,0,0,1,1.09-.42,1,1,0,0,1,.72.48.63.63,0,0,1,.09.54c0,.11-.1.15-.11.15a.66.66,0,0,0-.11-.59.87.87,0,0,0-.62-.34,1.2,1.2,0,0,0-.85.4c-.51.56-1,1.43-1.67,2.31l-2.11,3-.22.31-.19-.32c-.65-1.06-1.36-2.21-2.08-3.4-1.89-3.08-3.56-5.9-4.76-7.95-.59-1-1.07-1.85-1.38-2.44A3.89,3.89,0,0,1,241.85,137.69Z" style="fill:#263238"></path><path d="M252.78,180.88a5,5,0,0,1,0-1.25c0-.8.13-2,.27-3.4.28-2.86.81-6.79,1.46-11.13s1.24-8.25,1.61-11.09c.18-1.34.32-2.47.44-3.37a5.5,5.5,0,0,1,.21-1.24,6.36,6.36,0,0,1,0,1.25c0,.81-.13,2-.27,3.4-.28,2.86-.81,6.8-1.46,11.13s-1.24,8.25-1.61,11.1c-.17,1.34-.32,2.47-.43,3.37A7.44,7.44,0,0,1,252.78,180.88Z" style="fill:#263238"></path><path d="M218.65,158c.15,0,.08,7.27-.16,16.22s-.54,16.22-.68,16.21-.07-7.26.16-16.22S218.51,158,218.65,158Z" style="fill:#263238"></path><path d="M201.54,206.16a3.64,3.64,0,0,1,.21.48,2.1,2.1,0,0,1,.08,1.56c-.4.77-1.94,2.92-2.89,2.66s-2.68-1-2.68-1l-16.38-14s-1-1.78-.52-2.65a12.84,12.84,0,0,1,2.24-2.24h3.52Z" style="fill:#FF725E"></path><path d="M185.51,192.56a104.74,104.74,0,0,1,8.29,6.64c4.48,3.77,8,6.92,7.94,7s-3.8-2.86-8.28-6.64S185.42,192.67,185.51,192.56Z" style="fill:#263238"></path><path d="M186.52,189.68a8.55,8.55,0,0,1,2,1.19c1.16.8,2.72,2,4.36,3.37s3,2.76,4,3.78a8.79,8.79,0,0,1,1.47,1.75,10.93,10.93,0,0,1-1.73-1.49c-1-.95-2.47-2.25-4.09-3.64s-3.14-2.61-4.24-3.48A11.34,11.34,0,0,1,186.52,189.68Z" style="fill:#263238"></path><g style="opacity:0.30000000000000004"><path d="M309.44,213.18a12.8,12.8,0,0,1,8.06,2c.51.33,1.05.84.92,1.43a1.35,1.35,0,0,1-1.34.79l-.6-.23a23.52,23.52,0,0,0-14.51-.38A12.77,12.77,0,0,1,309.44,213.18Z"></path></g><path d="M298.14,225.05a2.33,2.33,0,0,1-.4-1,5.48,5.48,0,0,1,.09-2.85,7.12,7.12,0,0,1,2.35-3.51,10.42,10.42,0,0,1,4.74-2,21.21,21.21,0,0,1,9.26.53,17.53,17.53,0,0,1,2.65,1,3.55,3.55,0,0,1,.92.49c0,.08-1.38-.53-3.66-1.09a23.13,23.13,0,0,0-9.08-.37,10.28,10.28,0,0,0-4.53,1.91,7,7,0,0,0-2.3,3.24,6,6,0,0,0-.25,2.7C298,224.7,298.19,225,298.14,225.05Z" style="fill:#263238"></path><g style="opacity:0.30000000000000004"><path d="M290.11,179l6.21,35.85A48.9,48.9,0,0,1,290.11,179Z"></path></g><g style="opacity:0.30000000000000004"><path d="M258.75,146.53c1.35,2.3,2.37,4.43,3.79,6.8l14.71-12c-4.28,6.09-8.88,11.1-15.53,14.66a1.26,1.26,0,0,1-1,.2c-.37-.15-.5-.6-.59-1l-1.5-6.94a5.81,5.81,0,0,0-1.69.3C256.94,148.42,258.26,147.27,258.75,146.53Z"></path></g><g style="opacity:0.30000000000000004"><path d="M218.24,162c.72,9.22,0,18.05-.52,27.27A30.89,30.89,0,0,1,218.24,162Z"></path></g><g style="opacity:0.30000000000000004"><path d="M199.23,204a53.84,53.84,0,0,0-5.39-6.19,18.09,18.09,0,0,0-7-4.24c3.88,3.16,8.46,7.27,12.35,10.43"></path></g><path d="M260.42,440l.62,35.24,43.85-.54c-.31-4.18-23.1-12.31-23.1-12.31l.53-22.6Z" style="fill:#FF725E"></path><g style="opacity:0.6000000000000001"><path d="M268.21,460.67a1.81,1.81,0,0,0-1.22,2.06,1.72,1.72,0,0,0,2,1.22,1.89,1.89,0,0,0,1.27-2.18,1.79,1.79,0,0,0-2.25-1" style="fill:#fff"></path></g><g style="opacity:0.6000000000000001"><path d="M261,475.26l-.06-3.55,42.15.81s2,.82,1.76,2.2Z" style="fill:#fff"></path></g><path d="M282.5,462.17c0,.22-1.07.33-2.12,1s-1.59,1.61-1.79,1.53.1-1.33,1.38-2.15S282.54,462,282.5,462.17Z" style="fill:#263238"></path><path d="M287.12,464c.05.21-.87.58-1.58,1.5s-.92,1.87-1.13,1.87-.37-1.22.55-2.34S287.12,463.82,287.12,464Z" style="fill:#263238"></path><path d="M289.8,469.49c-.19.05-.5-1,0-2.2s1.53-1.65,1.63-1.48-.52.82-.95,1.79S290,469.47,289.8,469.49Z" style="fill:#263238"></path><path d="M282.05,457c-.09.2-1.07-.09-2.28,0s-2.15.49-2.27.31.79-1,2.21-1.05S282.15,456.84,282.05,457Z" style="fill:#263238"></path><path d="M280.94,451.82a4.15,4.15,0,0,1-2.2,0,9.85,9.85,0,0,1-2.3-.68,9.63,9.63,0,0,1-1.27-.66,2.38,2.38,0,0,1-.67-.5.94.94,0,0,1-.11-1.14,1.16,1.16,0,0,1,.93-.5,2.56,2.56,0,0,1,.82.1,7.74,7.74,0,0,1,3.42,1.76c1,.93,1.38,1.72,1.31,1.76s-.6-.59-1.64-1.35a8.71,8.71,0,0,0-2-1.08,9.27,9.27,0,0,0-1.26-.38c-.47-.11-.86-.11-1,.1s-.05.11.05.24a1.84,1.84,0,0,0,.49.37,10.6,10.6,0,0,0,1.17.65,12.67,12.67,0,0,0,2.13.79A15.1,15.1,0,0,1,280.94,451.82Z" style="fill:#263238"></path><path d="M280.67,452.13a3.49,3.49,0,0,1-.61-2.11,7.36,7.36,0,0,1,.27-2.41,7.52,7.52,0,0,1,.54-1.34,1.82,1.82,0,0,1,1.39-1.13,1,1,0,0,1,.92.6,2.86,2.86,0,0,1,.24.8,4.92,4.92,0,0,1,0,1.48,5.06,5.06,0,0,1-.91,2.28c-.84,1.15-1.73,1.42-1.75,1.35s.67-.53,1.31-1.63a5.31,5.31,0,0,0,.67-2.08,4.5,4.5,0,0,0-.06-1.26c-.07-.47-.25-.84-.43-.79s-.58.35-.76.73a6.83,6.83,0,0,0-.52,1.19,7.67,7.67,0,0,0-.4,2.2C280.54,451.3,280.78,452.1,280.67,452.13Z" style="fill:#263238"></path><path d="M228.57,439l.69,35.24-43.84,1.09c.15-4.19,22.62-13.17,22.62-13.17l-1.37-22.56Z" style="fill:#FF725E"></path><g style="opacity:0.6000000000000001"><path d="M221.55,460a1.78,1.78,0,0,1,1.29,2,1.71,1.71,0,0,1-2,1.29,1.88,1.88,0,0,1-1.35-2.13,1.78,1.78,0,0,1,2.21-1.12" style="fill:#fff"></path></g><g style="opacity:0.6000000000000001"><path d="M229.26,474.28l-.07-3.56L187.1,473.1s-1.94.9-1.68,2.27Z" style="fill:#fff"></path></g><path d="M207.33,462c0,.21,1.08.28,2.15.94s1.66,1.55,1.85,1.46-.15-1.32-1.46-2.09S207.28,461.8,207.33,462Z" style="fill:#263238"></path><path d="M202.78,464c-.05.21.89.55,1.64,1.44s1,1.84,1.2,1.83.31-1.23-.64-2.32S202.78,463.81,202.78,464Z" style="fill:#263238"></path><path d="M200.3,469.58c.2,0,.47-1-.11-2.19s-1.59-1.6-1.68-1.42.55.79,1,1.75S200.09,469.57,200.3,469.58Z" style="fill:#263238"></path><path d="M207.59,456.82c.09.19,1.07-.13,2.28-.07s2.16.41,2.27.22-.82-.93-2.25-1S207.48,456.66,207.59,456.82Z" style="fill:#263238"></path><path d="M208.5,451.59a4.14,4.14,0,0,0,2.2-.06,10.38,10.38,0,0,0,2.28-.77,8.63,8.63,0,0,0,1.24-.7,2.66,2.66,0,0,0,.65-.53.94.94,0,0,0,.07-1.14,1.18,1.18,0,0,0-.95-.47,2.8,2.8,0,0,0-.82.14,7.41,7.41,0,0,0-1.35.5,7.78,7.78,0,0,0-2,1.38c-1,1-1.32,1.78-1.24,1.81s.57-.61,1.59-1.41a8.25,8.25,0,0,1,3.18-1.58c.46-.13.86-.14,1,.06s0,.11,0,.25a2.29,2.29,0,0,1-.48.39,11.54,11.54,0,0,1-1.14.69,12.23,12.23,0,0,1-2.1.87A16.55,16.55,0,0,0,208.5,451.59Z" style="fill:#263238"></path><path d="M208.79,451.89a3.52,3.52,0,0,0,.52-2.13,7.07,7.07,0,0,0-.36-2.4,7,7,0,0,0-.59-1.32,1.81,1.81,0,0,0-1.43-1.07,1,1,0,0,0-.9.63,2.73,2.73,0,0,0-.2.81,4.86,4.86,0,0,0,0,1.48,5,5,0,0,0,1,2.25c.88,1.11,1.78,1.35,1.8,1.27s-.69-.5-1.37-1.58a4.93,4.93,0,0,1-.75-2,4.51,4.51,0,0,1,0-1.27c.06-.47.22-.85.4-.81s.59.34.78.7a7.15,7.15,0,0,1,.58,1.18,8.22,8.22,0,0,1,.48,2.18C208.88,451.06,208.67,451.86,208.79,451.89Z" style="fill:#263238"></path><path d="M230.29,260.35c-.08,0-.62,1.25-1.61,3.26a25,25,0,0,1-5,7.07,13.51,13.51,0,0,1-7.63,3.65,16.37,16.37,0,0,1-3.58-.16,2.45,2.45,0,0,0,.92.34,8.77,8.77,0,0,0,2.69.23,13.12,13.12,0,0,0,8-3.64,22.38,22.38,0,0,0,4.93-7.32c.46-1,.78-1.88,1-2.48A2.93,2.93,0,0,0,230.29,260.35Z" style="fill:#455a64"></path><path d="M299.78,255.12s3.29,19.33,2.66,34-7.9,70.54-10.21,88.83c-1.41,11.2-2,32.41-3.26,46.37C288,435,284.7,457,284.7,457l-25.56.21s-2.41-62.81-2.44-66.2-3.44-89.81-3.44-89.81-15.52,55.26-16.56,65.42-1.23,39.45-1.87,51.88-4.34,40.37-4.34,40.37-26.66.77-26.3-.73-4.82-76.68-5.26-84.58S214.6,253.36,214.6,253.36h0Z" style="fill:#263238"></path><path d="M281,260.35a2.93,2.93,0,0,0,.26.95c.2.6.52,1.45,1,2.48a22.38,22.38,0,0,0,4.93,7.32,13.12,13.12,0,0,0,8,3.64,8.77,8.77,0,0,0,2.69-.23,2.68,2.68,0,0,0,.92-.34,16.37,16.37,0,0,1-3.58.16,13.51,13.51,0,0,1-7.63-3.65,25,25,0,0,1-5-7.07C281.64,261.6,281.1,260.32,281,260.35Z" style="fill:#455a64"></path><path d="M290.9,395.89a1.09,1.09,0,0,0,0-.31c0-.24,0-.55,0-.92,0-.85,0-2,0-3.52,0-3.06,0-7.49.06-13s.38-12,1-19.18,1.67-15.08,2.79-23.35,2.14-16.18,2.71-23.4A151.92,151.92,0,0,0,297.9,293c-.07-2.74-.39-5.21-.56-7.37s-.55-4-.81-5.53-.54-2.62-.71-3.45c-.08-.37-.15-.66-.2-.9a1.31,1.31,0,0,0-.09-.3,1.2,1.2,0,0,0,0,.31c0,.24.08.54.14.91.15.84.35,2,.61,3.47s.43,3.37.71,5.52.42,4.62.46,7.36a154.88,154.88,0,0,1-.56,19.17c-.6,7.21-1.63,15.09-2.75,23.37S292,351.74,291.43,359s-.82,13.74-.88,19.21,0,9.91.12,13c.06,1.5.11,2.67.14,3.52,0,.38,0,.68.06.92A1.3,1.3,0,0,0,290.9,395.89Z" style="fill:#455a64"></path><path d="M258.81,452.66c0,.17,5.85.3,13.06.3s13.07-.13,13.07-.3-5.85-.29-13.07-.29S258.81,452.5,258.81,452.66Z" style="fill:#455a64"></path><path d="M203.69,453.74c0,.17,6.14.3,13.72.3s13.72-.13,13.72-.3-6.14-.29-13.72-.29S203.69,453.58,203.69,453.74Z" style="fill:#455a64"></path><path d="M227.08,452.23a1.63,1.63,0,0,0,.11-.39c.07-.29.16-.67.27-1.15.23-1.05.55-2.55,1-4.45.8-3.87,2-9.48,3-16.49a122.62,122.62,0,0,0,1.32-24.81c-.5-9.36-2.52-19.51-2.48-30.28s2.86-20.81,5.59-29.72,5.43-16.9,7.59-23.65l2.92-9.09a28.71,28.71,0,0,1,2.74-6.6,9.2,9.2,0,0,1,3.12-3.2,14.22,14.22,0,0,1,1.44-.65,1.64,1.64,0,0,0-.4.1,5.9,5.9,0,0,0-1.1.45,9.11,9.11,0,0,0-3.25,3.17,28.29,28.29,0,0,0-2.86,6.63l-3,9.06c-2.2,6.73-4.88,14.71-7.71,23.63s-5.55,19-5.66,29.86a131,131,0,0,0,1.06,15.74c.58,5.06,1.18,9.93,1.47,14.58a124.89,124.89,0,0,1-1.2,24.72c-1,7-2.09,12.62-2.82,16.5-.37,1.92-.66,3.42-.86,4.48-.09.48-.16.87-.22,1.16A2.49,2.49,0,0,0,227.08,452.23Z" style="fill:#455a64"></path><path d="M289.62,254.87l-7,108.42c-25.26-6.6-42.39-1.44-79.19-7.08h1.11L216.69,253.4Z" style="fill:#ebebeb"></path><path d="M225.68,334.9a3.17,3.17,0,0,1,.48-.25l1.41-.63c.62-.26,1.37-.59,2.22-1s1.84-.87,2.88-1.47,2.2-1.19,3.39-1.95,2.44-1.57,3.75-2.46a76.84,76.84,0,0,0,7.93-6.54,75.57,75.57,0,0,0,6.85-7.67c.94-1.27,1.85-2.46,2.61-3.65s1.47-2.28,2.08-3.31,1.12-2,1.58-2.82.82-1.57,1.11-2.17l.68-1.39a2.32,2.32,0,0,1,.27-.47,1.79,1.79,0,0,1-.17.51l-.6,1.43c-.26.62-.59,1.38-1,2.22s-.9,1.84-1.52,2.87-1.25,2.19-2,3.37-1.66,2.42-2.59,3.71A71.84,71.84,0,0,1,248.1,321a70.76,70.76,0,0,1-8,6.56c-1.33.88-2.57,1.75-3.81,2.44s-2.37,1.36-3.44,1.91-2.06,1-2.93,1.4-1.63.72-2.26.95l-1.45.54A1.65,1.65,0,0,1,225.68,334.9Z" style="fill:#263238"></path><path d="M266.4,74.51l1.07.06a20.64,20.64,0,0,1,19.46,20.15c.23,10,.36,21.06,0,26.4-.78,11.06-11.94,12.14-11.94,12.14l-.12,2.93-17.75,10.23-10.59-12.33.67-38.34C246.86,84.2,254.85,74.51,266.4,74.51Z" style="fill:#aa6550"></path><path d="M282.62,102a1.58,1.58,0,0,1-1.61,1.51,1.51,1.51,0,0,1-1.55-1.52,1.59,1.59,0,0,1,1.61-1.51A1.52,1.52,0,0,1,282.62,102Z" style="fill:#263238"></path><path d="M284.44,99.42c-.21.19-1.35-.76-3.05-.86s-3,.69-3.17.47.13-.46.7-.82a4.26,4.26,0,0,1,2.55-.63,4.19,4.19,0,0,1,2.42.94C284.39,99,284.54,99.33,284.44,99.42Z" style="fill:#263238"></path><path d="M266.36,101.11a1.58,1.58,0,0,1-1.61,1.5,1.51,1.51,0,0,1-1.55-1.51,1.58,1.58,0,0,1,1.61-1.51A1.51,1.51,0,0,1,266.36,101.11Z" style="fill:#263238"></path><path d="M267.52,98c-.18.22-1.43-.61-3.13-.51s-2.9,1-3.1.8.09-.47.61-.89a4.38,4.38,0,0,1,2.47-.9,4.15,4.15,0,0,1,2.51.67C267.42,97.5,267.62,97.87,267.52,98Z" style="fill:#263238"></path><path d="M273,112.31a10.93,10.93,0,0,1,2.79-.34c.43,0,.85-.08.94-.37a2.26,2.26,0,0,0-.22-1.31c-.34-1.07-.71-2.2-1.09-3.38-1.51-4.81-2.58-8.75-2.39-8.81s1.58,3.79,3.09,8.6c.37,1.18.71,2.31,1,3.4a2.47,2.47,0,0,1,.13,1.71,1.11,1.11,0,0,1-.75.6,2.86,2.86,0,0,1-.74.06A11,11,0,0,1,273,112.31Z" style="fill:#263238"></path><path d="M267.88,113.2c.28,0,.18,1.84,1.68,3.25S273,117.76,273,118s-.46.33-1.29.3a4.65,4.65,0,0,1-2.91-1.2,4,4,0,0,1-1.29-2.72C267.53,113.63,267.76,113.18,267.88,113.2Z" style="fill:#263238"></path><path d="M267.64,92.35c-.16.47-1.86.29-3.85.59s-3.6.88-3.87.47c-.13-.19.14-.64.78-1.1a6.74,6.74,0,0,1,5.89-.81C267.33,91.78,267.71,92.13,267.64,92.35Z" style="fill:#263238"></path><path d="M283.9,95c-.32.37-1.47-.1-2.88-.2s-2.61.11-2.86-.31c-.11-.2.1-.58.64-.91a4.17,4.17,0,0,1,4.63.41C283.9,94.44,284,94.85,283.9,95Z" style="fill:#263238"></path><path d="M254.3,78.87c-.52-.3-2.89,2.12-3.34,2.53-2.66,2.35-3.78,6.78-4.12,10.32a38.32,38.32,0,0,0,.06,10.15c.07.43.31,2.26.31,2.26.47.42.95,4.37,1.58,4.42.89.07,1.75-6,1.93-6.42a26.15,26.15,0,0,1,.74-4.07,37.73,37.73,0,0,0,1.28-6.55c.16-3.08,1.33-7.64,1.49-10.71C254.26,80.22,254.81,79.16,254.3,78.87Z" style="fill:#263238"></path><path d="M251.83,83.4a22.57,22.57,0,0,1,13.75-8.28,5.81,5.81,0,0,1,3.67.26A12.22,12.22,0,0,1,271,76.76a2.94,2.94,0,0,0,2,.8A1.35,1.35,0,0,0,274.29,76a19.44,19.44,0,0,0-24.18,7.19" style="fill:#263238"></path><path d="M254,83l-6.43,4.62a24.5,24.5,0,0,0-.68,3.6l6.39-3.88Z" style="fill:#e0e0e0"></path><path d="M248.87,104c-.19-.09-7.48-2.68-7.67,4.9s7.46,6.21,7.48,6S248.87,104,248.87,104Z" style="fill:#aa6550"></path><path d="M246.43,111.94s-.13.09-.36.18a1.26,1.26,0,0,1-1,0,3.25,3.25,0,0,1-1.44-3,4.37,4.37,0,0,1,.42-1.88,1.5,1.5,0,0,1,1-1,.68.68,0,0,1,.77.38c.09.22,0,.37.08.38s.17-.12.11-.44a.81.81,0,0,0-.28-.48,1,1,0,0,0-.73-.21,1.86,1.86,0,0,0-1.41,1.14,4.56,4.56,0,0,0-.51,2.1c0,1.53.76,3,1.84,3.32a1.39,1.39,0,0,0,1.22-.17C246.42,112.12,246.46,112,246.43,111.94Z" style="fill:#894536"></path><path d="M275.09,133.1A26.66,26.66,0,0,1,260.43,128s3,8.55,14.43,8.18Z" style="fill:#894536"></path><path d="M278.17,181.18a8.29,8.29,0,0,1-.38,2.28,11,11,0,0,0-.18,1.12c0,.42-.07.86-.1,1.31a1.65,1.65,0,0,0,1.52,1.8,2.78,2.78,0,0,0,2.1-1.63,7.84,7.84,0,0,0,.82-2.27,20.27,20.27,0,0,1,.44-2.25,7.16,7.16,0,0,1-.07,2.31,7.34,7.34,0,0,1-.77,2.44,4.63,4.63,0,0,1-.93,1.24,2.44,2.44,0,0,1-1.58.68,1.87,1.87,0,0,1-1.56-.8,2.24,2.24,0,0,1-.45-1.55c.05-.46.1-.9.15-1.34a10.36,10.36,0,0,1,.26-1.15A13.9,13.9,0,0,1,278.17,181.18Z" style="fill:#263238"></path><path d="M279.75,183.19c0,.08-.41.1-.73.54a.89.89,0,0,0-.14.83,1,1,0,0,0,.75.64,1,1,0,0,0,.88-.44.89.89,0,0,0,.07-.83c-.21-.51-.61-.63-.58-.7s.52-.1.91.53a1.24,1.24,0,0,1,0,1.24,1.37,1.37,0,0,1-1.35.71,1.39,1.39,0,0,1-1.15-1,1.25,1.25,0,0,1,.32-1.21C279.27,183,279.78,183.14,279.75,183.19Z" style="fill:#263238"></path><path d="M222.59,180.09a15.66,15.66,0,0,1,.09,2.23,6,6,0,0,0,.54,2.27,5.63,5.63,0,0,0,.74,1.13,2.22,2.22,0,0,0,1.19.63,1.48,1.48,0,0,0,1.2-.41,3.1,3.1,0,0,0,.78-1.06,6.06,6.06,0,0,0,.48-2.28c.08-1.37,0-2.21,0-2.23a5.43,5.43,0,0,1,.32,2.24,5.62,5.62,0,0,1-.41,2.46,3.49,3.49,0,0,1-.87,1.26,2,2,0,0,1-1.63.53,2.75,2.75,0,0,1-1.48-.79,5.89,5.89,0,0,1-.8-1.28,5.83,5.83,0,0,1-.46-2.46A6.83,6.83,0,0,1,222.59,180.09Z" style="fill:#263238"></path><path d="M225.31,182.23c0,.08-.4,0-.72.43a.72.72,0,0,0-.15.73.75.75,0,0,0,1.42,0,.76.76,0,0,0-.1-.75c-.3-.4-.7-.4-.69-.48s.45-.24,1,.24a1.1,1.1,0,0,1,.27,1.15,1.21,1.21,0,0,1-2.33-.05,1.08,1.08,0,0,1,.35-1.13C224.88,182,225.35,182.18,225.31,182.23Z" style="fill:#263238"></path><path d="M231.19,195.6a9.38,9.38,0,0,1,1.44.55c.45.2,1,.44,1.67.67s1.39.54,2.24.79a48.71,48.71,0,0,0,6,1.56A52.68,52.68,0,0,0,250,200a52.12,52.12,0,0,0,7.56-.34,49.15,49.15,0,0,0,6.07-1.16c.86-.19,1.61-.45,2.29-.64s1.24-.39,1.71-.55a8.55,8.55,0,0,1,1.47-.46,8.79,8.79,0,0,1-1.4.65c-.46.19-1,.42-1.69.64s-1.43.5-2.29.72a44,44,0,0,1-6.1,1.27,45.57,45.57,0,0,1-15.22-.5,45.36,45.36,0,0,1-6-1.68c-.85-.27-1.58-.61-2.23-.87s-1.2-.53-1.64-.75A8.83,8.83,0,0,1,231.19,195.6Z" style="fill:#263238"></path><path d="M256.28,226.84c7.37-2.35,13.49-9.27,13.47-17l.36-1.38a22.24,22.24,0,0,1-20.87,25.87,17.22,17.22,0,0,1-9.77-2.27,11.81,11.81,0,0,1-5.62-8.08C240.7,227.57,248.91,229.19,256.28,226.84Z" style="fill:#e0e0e0"></path><path d="M228.89,200.06a4.78,4.78,0,0,1,.18.81c.09.54.21,1.34.31,2.36.22,2.06.21,5.06.49,8.72a26.33,26.33,0,0,0,1.1,5.86,14,14,0,0,0,3.4,5.82,13.66,13.66,0,0,0,6.58,3.43,29.56,29.56,0,0,0,8.09.57,30.71,30.71,0,0,0,8-1.29,16.62,16.62,0,0,0,6.5-3.7,19.42,19.42,0,0,0,4-5.48,26.68,26.68,0,0,0,2.05-5.61A59.6,59.6,0,0,0,271,203c.09-1,.16-1.77.22-2.36a5.4,5.4,0,0,1,.11-.82,4.39,4.39,0,0,1,0,.83c0,.59-.08,1.38-.13,2.37a53.08,53.08,0,0,1-1.19,8.66,27.51,27.51,0,0,1-2,5.72,19.49,19.49,0,0,1-4.07,5.64,17,17,0,0,1-6.67,3.84,31.57,31.57,0,0,1-8.15,1.32,29.52,29.52,0,0,1-8.23-.6A14.09,14.09,0,0,1,234,224a14.4,14.4,0,0,1-3.47-6,26.13,26.13,0,0,1-1.06-6c-.24-3.7-.17-6.68-.33-8.73-.06-1-.15-1.82-.2-2.36A4.6,4.6,0,0,1,228.89,200.06Z" style="fill:#263238"></path><path d="M406.45,247.64s4.25-4.08-2.22-9.54c-5.15-4.36-14-7.84-29.42-7.85-17.16,0-32.69,6.4-33,13.31s6.33,6.19,16.64,6.8c8.26.49,21.89.3,29.62.16,2.74,0,12.22-.51,14.85-1.25C404.52,248.83,406,248.27,406.45,247.64Z" style="fill:#455a64"></path><g style="opacity:0.30000000000000004"><path d="M393.93,232.71a59.07,59.07,0,0,1,1.88,7.14,1.07,1.07,0,0,1,0,.64c-.22.43-.88.33-1.31.1a9.78,9.78,0,0,1-2.44-2.15c-2.38-2.59-4.75-5-7.12-7.6A52.09,52.09,0,0,1,393.93,232.71Z"></path></g><g style="opacity:0.30000000000000004"><path d="M376.9,230.28a51.8,51.8,0,0,1,4.27,8.44c.27.66.5,1.48,0,2a1.35,1.35,0,0,1-1.36.32,3.9,3.9,0,0,1-1.28-.73l-12.68-9.49A56.73,56.73,0,0,1,376.9,230.28Z"></path></g><g style="opacity:0.30000000000000004"><path d="M355.9,232.94a68.49,68.49,0,0,1,8,7.09c.4.42.82,1.05.48,1.52s-.92.31-1.4.17a35.06,35.06,0,0,1-12.79-6.6A42,42,0,0,1,355.9,232.94Z"></path></g><rect x="327.78" y="249.38" width="133.94" height="3.47" transform="translate(789.5 502.23) rotate(180)" style="fill:#263238"></rect><path d="M457.47,246.69s4.24-4.08-2.22-9.55c-5.16-4.35-14-7.83-29.43-7.84-17.16,0-32.68,6.4-33,13.31s6.33,6.19,16.64,6.8c8.27.49,21.89.29,29.62.16,2.74,0,12.22-.51,14.86-1.25C455.53,247.87,457,247.31,457.47,246.69Z" style="fill:#FF725E"></path><g style="opacity:0.30000000000000004"><path d="M444.94,231.75a55.3,55.3,0,0,1,1.88,7.15,1,1,0,0,1,0,.63c-.22.44-.88.33-1.3.1a9.81,9.81,0,0,1-2.45-2.14c-2.37-2.59-4.75-5-7.12-7.61A53,53,0,0,1,444.94,231.75Z"></path></g><g style="opacity:0.30000000000000004"><path d="M427.91,229.32a52.2,52.2,0,0,1,4.27,8.44c.27.66.5,1.49,0,2a1.35,1.35,0,0,1-1.36.32,4.06,4.06,0,0,1-1.28-.72l-12.68-9.5A56.73,56.73,0,0,1,427.91,229.32Z"></path></g><g style="opacity:0.30000000000000004"><path d="M406.91,232a70.39,70.39,0,0,1,7.95,7.09c.41.42.82,1.05.48,1.52s-.92.32-1.4.17a35.19,35.19,0,0,1-12.79-6.59A43.35,43.35,0,0,1,406.91,232Z"></path></g><g style="opacity:0.30000000000000004"><path d="M395.28,245.11c.1-.16.86.16,2.23.53a27.08,27.08,0,0,0,6,.86c5.16.2,12.41.27,20.38.33l20.44.11c5.24.05,8.48.14,8.51.51s-3.2.91-8.44,1.33-12.51.71-20.53.65a183.2,183.2,0,0,1-20.55-1.09,19.35,19.35,0,0,1-6.14-1.76C395.78,245.88,395.2,245.25,395.28,245.11Z"></path></g><path d="M163.17,250.28c0,.5-1.28,5-1.28,5l-7,4.07a2.37,2.37,0,0,1-.46-3.72,20.25,20.25,0,0,1,5.37-4.29Z" style="fill:#894536"></path><path d="M115.71,254.58H325.12a3.47,3.47,0,0,0,3.47-3.47h0a3.47,3.47,0,0,0-3.47-3.47H115.71a3.48,3.48,0,0,0-3.47,3.47h0A3.47,3.47,0,0,0,115.71,254.58Z" style="fill:#263238"></path><path d="M256.64,246.65l3-3.48s2.16,0,2.74,1.27l2.44-1.78s2-.17,2,1.61l1.76-.26,3.25,4.09-.59,3.14,1.14,3.34h9.08s-3.34,8.31-4.7,8.82a3.16,3.16,0,0,1-2.38,0l-2.21-1.11a1.49,1.49,0,0,1-1.27,1.7,17.18,17.18,0,0,1-3.15,0s-3.65-.93-4.67-2.29l-2.38-.73s-5.36-5.22-5.44-6.67S256.64,246.65,256.64,246.65Z" style="fill:#aa6550"></path><path d="M163.73,237.4c0,.29.28,10.24.28,10.24l-10,.87L152.21,251l-.33,3.54H155a6.15,6.15,0,0,1-1.1,2.88c-1.43,2-3.25,3.15-5.5,2.25l-2.13.09a3.53,3.53,0,0,1-2.07-.55l-1.55-1h0a3.69,3.69,0,0,1-2.92-.71l-2.06-1.62-.74-6.8,3.28-5.11,14-13.85Z" style="fill:#aa6550"></path><path d="M145.43,250c.15,0,.21,2.59.49,5.77a7.05,7.05,0,0,0,.35,2.12,3.06,3.06,0,0,0,1.27,1.11,6.87,6.87,0,0,1,1.46.87,4.7,4.7,0,0,1-1.63-.54,3.23,3.23,0,0,1-1.52-1.22,6.35,6.35,0,0,1-.45-2.29A21.5,21.5,0,0,1,145.43,250Z" style="fill:#894536"></path><path d="M140.87,251.12c.18,0,0,1.77.44,3.82a7.6,7.6,0,0,0,1,2.43c.38.57.69.88.64.94s-.44-.16-.93-.71a6,6,0,0,1-1.25-2.54A7.14,7.14,0,0,1,140.87,251.12Z" style="fill:#894536"></path><path d="M282.31,247.68c0-.33-.74-4.2-2.22-4.53a59,59,0,0,0-6.84-.33l-5.93,2.43s-.5,3.83,3.29,4.16a9.47,9.47,0,0,0,6.34-1.73Z" style="fill:#aa6550"></path><path d="M269.52,244.42s-.17.15-.47.36a3.85,3.85,0,0,0-1.08,1.07,2,2,0,0,0-.15,2,2.78,2.78,0,0,0,2.22,1.25,12.29,12.29,0,0,0,5.07-.64c1.26-.44,2-.87,2-.79a5.38,5.38,0,0,1-1.89,1.13,11.09,11.09,0,0,1-5.26.82,3.19,3.19,0,0,1-2.59-1.55,2.39,2.39,0,0,1,.28-2.45,3.37,3.37,0,0,1,1.27-1.05C269.29,244.44,269.5,244.39,269.52,244.42Z" style="fill:#894536"></path><path d="M272.39,254.57c0-.14.62-.06,1.21.32s.89.89.79,1-.55-.2-1.08-.54S272.34,254.7,272.39,254.57Z" style="fill:#894536"></path><path d="M266.52,249.43c.08,0-.51.83-1.21,2.18a6,6,0,0,0-.71,2.51,3.64,3.64,0,0,0,1.13,2.82,43.24,43.24,0,0,0,4.39,4.1c1.21.94,2.08,1.35,2.05,1.43a6.6,6.6,0,0,1-2.27-1.13,31.54,31.54,0,0,1-4.55-4,4.62,4.62,0,0,1-1-1.52,4.35,4.35,0,0,1-.23-1.68,6.14,6.14,0,0,1,.86-2.66,12,12,0,0,1,1.06-1.52C266.32,249.58,266.49,249.41,266.52,249.43Z" style="fill:#894536"></path><path d="M262.42,244.73c.06.05-.6.94-1.53,2.46-.47.75-1,1.67-1.53,2.71a5.86,5.86,0,0,0-.95,3.5,9.68,9.68,0,0,0,1.58,3.35c.63,1,1.22,1.88,1.72,2.61a23.1,23.1,0,0,1,1.62,2.4,11.84,11.84,0,0,1-1.91-2.18c-.55-.71-1.18-1.58-1.83-2.57a9.65,9.65,0,0,1-1.7-3.54,4.15,4.15,0,0,1,.24-2.08,15.12,15.12,0,0,1,.8-1.71,30.09,30.09,0,0,1,1.65-2.7A10.54,10.54,0,0,1,262.42,244.73Z" style="fill:#894536"></path></g><g id="freepik--Plant--inject-159"><path d="M154.77,397.32a18.86,18.86,0,0,0-30.93,7.27l2.2,8.66c.86-2.94,2.69-5.78,5.51-7s6.32-.52,9.32.59,5.92,2.57,9.1,2.78,6.78-1.28,7.75-4.32C158.63,402.47,156.92,399.41,154.77,397.32Z" style="fill:#FF725E"></path><g style="opacity:0.30000000000000004"><path d="M154.77,397.32a18.86,18.86,0,0,0-30.93,7.27l2.2,8.66c.86-2.94,2.69-5.78,5.51-7s6.32-.52,9.32.59,5.92,2.57,9.1,2.78,6.78-1.28,7.75-4.32C158.63,402.47,156.92,399.41,154.77,397.32Z"></path></g><path d="M100.77,425.91c-4.65-4.46-4.38-12.17-2-18.17s7.46-10.57,13.15-13.58a41.47,41.47,0,0,1,36.13-1,17.12,17.12,0,0,0-13.9,8.08c-2.58,4.23-3.17,9.39-5.31,13.86a21.85,21.85,0,0,1-28,10.82" style="fill:#FF725E"></path><path d="M98.65,399.26c-5.14-6.13-5.78-15.92-5-23.88s2.68-15.95,1.46-23.86c-.72-4.68-2.52-9.15-3.11-13.85s.3-10,4-13c4.2-3.47,10.78-2.62,15.11.68s6.84,8.44,8.66,13.57c4,11.27,5.42,23.76,2,35.24s-11.23,21.71-22.69,25.12" style="fill:#FF725E"></path><path d="M95.94,449.3a3.75,3.75,0,0,1,0-.7c0-.46,0-1.15,0-2,.08-1.75.26-4.28.66-7.39a98.63,98.63,0,0,1,2-10.81,49.79,49.79,0,0,1,5-12.5,52.3,52.3,0,0,1,8.12-10.75,51.13,51.13,0,0,1,8.49-7c1.3-.89,2.55-1.56,3.63-2.18s2.07-1,2.86-1.43l1.86-.77a4.9,4.9,0,0,1,.66-.24,6.1,6.1,0,0,1-.63.32l-1.82.85c-.78.39-1.73.88-2.82,1.48s-2.29,1.32-3.57,2.22A53.21,53.21,0,0,0,104,416.09c-4.79,8.29-6.13,17-7.1,23.15-.44,3.09-.67,5.61-.79,7.35-.06.84-.1,1.51-.13,2A4.85,4.85,0,0,1,95.94,449.3Z" style="fill:#263238"></path><path d="M51.71,375c-9.59,5.73-9.59,11-8,15.94s7.42,8.44,12.3,6.61c2.75-1,4.76-3.42,6.47-5.82s3.32-4.95,5.72-6.67a8.39,8.39,0,0,1,5.71-1.6Z" style="fill:#FF725E"></path><g style="opacity:0.30000000000000004"><path d="M51.71,375c-9.59,5.73-9.59,11-8,15.94s7.42,8.44,12.3,6.61c2.75-1,4.76-3.42,6.47-5.82s3.32-4.95,5.72-6.67a8.39,8.39,0,0,1,5.71-1.6Z"></path></g><path d="M44.52,381.27c2.52-3.45,8.7-4.42,12.59-2.68s6.73,5.18,9.27,8.6,5,7,8.55,9.43,8.47,3.28,12,.9a10.3,10.3,0,0,0,4.12-7,23.7,23.7,0,0,0-.52-8.34c-.83-4-2.19-8.21-5.38-10.77-3.57-2.86-8.53-3-13.09-2.89-5.24.15-10.56.52-15.48,2.31s-10,5.69-12.07,10.49" style="fill:#FF725E"></path><path d="M88,441.6a.58.58,0,0,1,0-.21c0-.16,0-.36,0-.61,0-.58,0-1.37-.07-2.38-.05-2.09-.12-5.07-.21-8.73s-.23-8.07-.47-12.93-.59-10.22-1.3-15.79a50.38,50.38,0,0,0-1.55-8,41.43,41.43,0,0,0-2.89-7,40.82,40.82,0,0,0-3.67-5.82,37.87,37.87,0,0,0-4-4.45,29.67,29.67,0,0,0-7.13-4.91c-.47-.22-.87-.43-1.24-.58l-.93-.37-.57-.23c-.13-.06-.2-.09-.19-.1a1,1,0,0,1,.2.06l.59.19,1,.33c.37.14.78.34,1.26.55A28.75,28.75,0,0,1,74,375.42a37.35,37.35,0,0,1,4.09,4.45,40.94,40.94,0,0,1,3.74,5.86,41.86,41.86,0,0,1,3,7.08,52.16,52.16,0,0,1,1.57,8.09c.71,5.59,1,11,1.26,15.82s.32,9.26.38,12.95.08,6.67.08,8.73c0,1,0,1.8,0,2.38,0,.25,0,.45,0,.61A.85.85,0,0,1,88,441.6Z" style="fill:#263238"></path><path d="M91.45,445.94a27.2,27.2,0,0,1-1-4.11A42.82,42.82,0,0,1,90,430.29a76.38,76.38,0,0,1,3.72-16.72c2-6.14,4.68-12.71,7-19.77a89.25,89.25,0,0,0,2.79-10.46,93.26,93.26,0,0,0,1.41-10,148,148,0,0,0,.38-17.09c-.14-4.88-.38-8.81-.53-11.54-.07-1.34-.13-2.39-.17-3.13,0-.34,0-.61,0-.82a1.23,1.23,0,0,1,0-.28s0,.1,0,.28,0,.47.07.81c.06.75.15,1.8.25,3.13.2,2.72.49,6.66.67,11.54a140.57,140.57,0,0,1-.29,17.13,84.93,84.93,0,0,1-4.18,20.55c-2.32,7.09-5,13.65-7,19.76a77.53,77.53,0,0,0-3.79,16.63,44.39,44.39,0,0,0,.24,11.48c.23,1.34.44,2.38.63,3.07l.19.8A1.14,1.14,0,0,1,91.45,445.94Z" style="fill:#263238"></path><polygon points="115.13 450.37 70.24 450.16 69.25 441.52 115.17 441.73 115.13 450.37" style="fill:#455a64"></polygon><polygon points="75.06 449.2 80.55 475.15 104.95 475.26 110.32 449.37 75.06 449.2" style="fill:#455a64"></polygon><path d="M115.13,450.37c0,.12-9.87.14-22,.05s-22-.26-22-.38,9.87-.14,22-.05S115.13,450.25,115.13,450.37Z" style="fill:#455a64"></path><path d="M107.37,463.13a19.07,19.07,0,0,0-3.94-2.28,13.93,13.93,0,0,0-4.81-1,16.66,16.66,0,0,0-5.91,1.06c-2,.68-4,1.48-5.83,1.91a13.7,13.7,0,0,1-5,.13,10.51,10.51,0,0,1-3.23-1,6,6,0,0,1-.78-.5c-.16-.13-.25-.2-.24-.21s.38.22,1.1.56a11.35,11.35,0,0,0,3.19.89,14.07,14.07,0,0,0,4.9-.21c1.8-.44,3.72-1.25,5.78-1.94a16.64,16.64,0,0,1,6.06-1,13.68,13.68,0,0,1,4.91,1.1,12.78,12.78,0,0,1,2.92,1.72,6.24,6.24,0,0,1,.69.6C107.3,463,107.38,463.12,107.37,463.13Z" style="fill:#263238"></path><path d="M107,464.86a19.82,19.82,0,0,0-3.79-2.25,12.68,12.68,0,0,0-4.63-1,16.67,16.67,0,0,0-5.72,1c-2,.66-3.84,1.41-5.62,1.88a14.19,14.19,0,0,1-4.83.52,8.15,8.15,0,0,1-3.17-.86,6.3,6.3,0,0,1-.75-.48c-.16-.13-.24-.2-.23-.21s.37.22,1.06.54a8.54,8.54,0,0,0,3.11.71,14.55,14.55,0,0,0,4.71-.6c1.74-.48,3.58-1.24,5.59-1.9a16.33,16.33,0,0,1,5.86-1,12.7,12.7,0,0,1,7.54,2.8,6.46,6.46,0,0,1,.66.59C107,464.77,107,464.85,107,464.86Z" style="fill:#fff"></path><path d="M107.82,461.41a22.29,22.29,0,0,0-4-2.41,14.92,14.92,0,0,0-4.92-1.2,15.77,15.77,0,0,0-6.1,1,55.16,55.16,0,0,1-6,1.94,15.23,15.23,0,0,1-5.19,0,11.91,11.91,0,0,1-3.33-1.07,7.1,7.1,0,0,1-.81-.51c-.17-.13-.26-.21-.25-.22s.39.23,1.13.58a13.2,13.2,0,0,0,3.31.92,15.79,15.79,0,0,0,5.07-.07c1.86-.4,3.84-1.26,6-2a15.86,15.86,0,0,1,6.27-1,15.19,15.19,0,0,1,8,3.14,6.88,6.88,0,0,1,.72.63C107.75,461.32,107.83,461.4,107.82,461.41Z" style="fill:#fff"></path><path d="M115.53,450.41c0,.12-10.1.17-22.56.11s-22.55-.2-22.55-.32,10.1-.17,22.56-.11S115.53,450.29,115.53,450.41Z" style="fill:#263238"></path></g><g id="freepik--Flour--inject-159"><path d="M400.06,370c-2.6-4.77-7.86-7.46-13.07-9-3-.89-6.17-1.53-8.71-3.36s-4.24-5.31-2.91-8.14a7.38,7.38,0,0,1,4.42-3.48,13.6,13.6,0,0,1,8.62-.08c2,.65,3.91,1.78,6,1.57s3.89-1.84,5.69-3.08,4.33-2.09,6.07-.78c.73.54,1.18,1.38,1.89,1.94,1.4,1.11,3.41.9,5.17.56s3.68-.72,5.25.15c-3.15,2.94-4.66,7.3-5,11.59s.42,8.59,1.17,12.83" style="fill:#455a64"></path><path d="M451.45,461.68c-1.85-4.31-4.93-8.06-6.35-12.53-1.9-6-.54-12.53-.07-18.84a66.36,66.36,0,0,0-21.66-53.59A16.25,16.25,0,0,0,418,373.2a18.39,18.39,0,0,0-7.06-.47c-6,.37-12.18.79-17.6,3.39-5.23,2.52-9.38,6.93-12.42,11.88-5.29,8.59-7.47,18.79-8,28.87s.63,20.15,1.46,30.2c.49,5.87.39,12.86-4.44,16.22a41.72,41.72,0,0,0-3.84,2.38c-2.57,2.23-2.37,7.16.12,9.48l83.52.11C453.28,472.19,453.3,466,451.45,461.68Z" style="fill:#455a64"></path><path d="M418.59,370.94c-.24-.51-.92-.58-1.49-.58a140,140,0,0,0-19.62,1.35,2.52,2.52,0,0,0-1.9.88c-.38.62.26,1.67.9,1.33l.63.51A97.84,97.84,0,0,0,417,372.58a2.9,2.9,0,0,0,1.25-.45A1,1,0,0,0,418.59,370.94Z" style="fill:#263238"></path><path d="M418,368.36c-.24-.51-.92-.59-1.48-.59a140.06,140.06,0,0,0-19.63,1.36,2.51,2.51,0,0,0-1.9.88c-.38.62.27,1.67.9,1.32l.64.52A97.81,97.81,0,0,0,416.37,370a3,3,0,0,0,1.25-.46A1,1,0,0,0,418,368.36Z" style="fill:#263238"></path><path d="M386.39,400.53l4.49-.73a.82.82,0,0,1,.27,0,.52.52,0,0,1,.47.47.41.41,0,0,1,0,.22.67.67,0,0,1-.5.46l-4,.66.14,3.91,2.92-.48a.8.8,0,0,1,.31,0,.53.53,0,0,1,.43.46.74.74,0,0,1,0,.21.67.67,0,0,1-.5.46l-3.11.51.13,4.24v0c0,.38-.15.59-.48.64a.58.58,0,0,1-.68-.5c-.06-.36-.14-2.91-.25-7.63,0-1.28-.05-2.06-.06-2.32v-.08A.52.52,0,0,1,386.39,400.53Z" style="fill:#fff"></path><path d="M399.1,409.61l-4.71.77a.58.58,0,0,1-.32,0,.88.88,0,0,1-.36-.55h0c0-.2-.13-3.48-.28-9.86a1.55,1.55,0,0,1,0-.21.53.53,0,0,1,.45-.43.48.48,0,0,1,.27,0,.53.53,0,0,1,.38.45c0,.43.07,1.33.11,2.7.14,4.2.21,6.42.23,6.65l4-.65a.65.65,0,0,1,.31,0,.53.53,0,0,1,.44.46,1.21,1.21,0,0,1,0,.19A.68.68,0,0,1,399.1,409.61Z" style="fill:#fff"></path><path d="M399.39,405a8.46,8.46,0,0,1,0-2.36,7.4,7.4,0,0,1,1.08-3.24,3.18,3.18,0,0,1,2.11-1.6,2.44,2.44,0,0,1,2.1.73,5.38,5.38,0,0,1,1.43,2.78c.14-.08.36-.22.63-.41a2.17,2.17,0,0,1,.82-.42.39.39,0,0,1,.26,0,.49.49,0,0,1,.33.4.75.75,0,0,1-.16.55,3.53,3.53,0,0,1-1.71,1.05,8.13,8.13,0,0,1,0,1.56,7.33,7.33,0,0,1-1.08,3.31A3.2,3.2,0,0,1,403,409a1.55,1.55,0,0,1-.31,0,2.59,2.59,0,0,1-2-1A6,6,0,0,1,399.39,405Zm1.16-.4a6.38,6.38,0,0,0,.73,2.16c.47.79,1,1.14,1.65,1a1.1,1.1,0,0,0,.48-.2,3.53,3.53,0,0,0,1.19-1.78,7.68,7.68,0,0,0,.48-3,3.47,3.47,0,0,1-2-.28,4.13,4.13,0,0,1-2-2A7.11,7.11,0,0,0,400.55,404.6ZM403,399a.73.73,0,0,0-.31.13,1,1,0,0,0-.25.95c0,.07,0,.15.07.24a1.91,1.91,0,0,0,1.18,1.14,2.37,2.37,0,0,0,1.29.21,6,6,0,0,0-.36-1.11Q403.92,399,403,399Z" style="fill:#fff"></path><path d="M415.87,406.3c0,.37-.16.59-.48.64a.5.5,0,0,1-.3,0,.69.69,0,0,1-.38-.55c0-.06,0-.27,0-.62a2.67,2.67,0,0,1-.6.86,2.85,2.85,0,0,1-1.59.82l-.32,0a2.6,2.6,0,0,1-2-1,6,6,0,0,1-1.3-3,36.61,36.61,0,0,1-.23-5.68v-.26a1.36,1.36,0,0,1,0-.2.51.51,0,0,1,.43-.44.42.42,0,0,1,.27,0,.54.54,0,0,1,.38.43v.4a37.35,37.35,0,0,0,.26,5.11,6.6,6.6,0,0,0,.84,2.49,1.55,1.55,0,0,0,1.58.92l.17,0a2.62,2.62,0,0,0,1.24-1.36,7,7,0,0,0,.74-2.79l-.15-5.49a.63.63,0,0,1,0-.27.51.51,0,0,1,.44-.38.59.59,0,0,1,.64.46c0,.44,0,.94.05,1.51C415.78,403.42,415.87,406.23,415.87,406.3Z" style="fill:#fff"></path><path d="M419.67,405.65c0,.39-.16.61-.48.67a.44.44,0,0,1-.3,0,.66.66,0,0,1-.38-.55c-.07-1.79-.18-5.08-.31-9.86a.47.47,0,0,1,.11-.28.81.81,0,0,1,.54-.31,7.29,7.29,0,0,1,1.36-.35,5.9,5.9,0,0,1,1-.08,2.09,2.09,0,0,1,2.33,1.85,3.65,3.65,0,0,1,0,1.36q-.39,2-3,3.34l4.45,2.9a.79.79,0,0,1,.32.47.49.49,0,0,1,0,.29.51.51,0,0,1-.41.34.77.77,0,0,1-.48-.08q-.18-.09-4.76-3.1C419.64,404.12,419.67,405.26,419.67,405.65Zm-.29-9.41.15,4.29a5.65,5.65,0,0,0,1.77-1,2.75,2.75,0,0,0,1.14-2.66q-.21-1.21-2-.93Z" style="fill:#fff"></path><path d="M427.31,421.43a2,2,0,0,1-.18.46c-.17.35-.37.78-.62,1.29s-.61,1.25-1.06,2-.92,1.65-1.55,2.58-1.27,2-2.06,3-1.66,2.14-2.59,3.29a59.16,59.16,0,0,1-14.59,12.34c-1.29.73-2.49,1.45-3.68,2s-2.28,1.1-3.3,1.54-2,.78-2.8,1.09-1.55.55-2.15.72l-1.38.4a1.72,1.72,0,0,1-.49.1,1.78,1.78,0,0,1,.46-.2l1.35-.49c.58-.2,1.3-.45,2.11-.8s1.76-.67,2.75-1.16,2.11-1,3.26-1.58,2.35-1.3,3.62-2a68.68,68.68,0,0,0,7.71-5.56,67,67,0,0,0,6.76-6.69c.94-1.12,1.85-2.17,2.61-3.23s1.48-2,2.1-2.95,1.14-1.77,1.6-2.52.85-1.4,1.14-2l.7-1.25A2,2,0,0,1,427.31,421.43Z" style="fill:#263238"></path><path d="M423.4,466.59a19.86,19.86,0,0,1,1.45-1.54,14.9,14.9,0,0,0,2.67-4.26,14.71,14.71,0,0,0,1.06-4.91,20.52,20.52,0,0,1,0-2.12,5.51,5.51,0,0,1,.34,2.12,12.94,12.94,0,0,1-3.83,9.43A5.67,5.67,0,0,1,423.4,466.59Z" style="fill:#263238"></path><path d="M429.47,468.47c-.07-.06.53-.77,1.28-2.05a17.09,17.09,0,0,0,2-5.37,17.3,17.3,0,0,0,.11-5.75c-.23-1.46-.53-2.34-.45-2.37a6.72,6.72,0,0,1,.81,2.31,15.15,15.15,0,0,1-2.18,11.38A7.06,7.06,0,0,1,429.47,468.47Z" style="fill:#263238"></path><path d="M440.43,459.89a7.66,7.66,0,0,1-2.39.55,20.88,20.88,0,0,1-11.61-1.91,8,8,0,0,1-2.09-1.29,27,27,0,0,0,16.09,2.65Z" style="fill:#263238"></path><path d="M436.85,464.78a7.17,7.17,0,0,1-2.3.27,20.44,20.44,0,0,1-10.7-2.92,7.57,7.57,0,0,1-1.85-1.4,27.12,27.12,0,0,0,14.85,4Z" style="fill:#263238"></path><path d="M382.18,432.41a7.1,7.1,0,0,1-1.06-1.88,25.71,25.71,0,0,1-2.19-10.13,6.83,6.83,0,0,1,.18-2.15,68.27,68.27,0,0,0,.91,7.22A69.33,69.33,0,0,0,382.18,432.41Z" style="fill:#263238"></path><path d="M389,429.8a6.26,6.26,0,0,1-1.53-1.48,17.83,17.83,0,0,1-4-9.34,6.12,6.12,0,0,1,0-2.12,32.38,32.38,0,0,0,1.81,6.88A32.94,32.94,0,0,0,389,429.8Z" style="fill:#263238"></path><path d="M389.49,419.45a5.85,5.85,0,0,1-1.63,1.21,19.49,19.49,0,0,1-9.34,2.72,5.88,5.88,0,0,1-2-.15,28.92,28.92,0,0,0,13-3.78Z" style="fill:#263238"></path><path d="M391,424a5.39,5.39,0,0,1-1.62,1.06,20.45,20.45,0,0,1-9,2.27,5.27,5.27,0,0,1-1.93-.16,53.83,53.83,0,0,0,6.43-1A54.84,54.84,0,0,0,391,424Z" style="fill:#263238"></path></g><g id="freepik--Floor--inject-159"><path d="M475.88,475.26c0,.15-101.16.27-225.92.27S24,475.41,24,475.26,125.15,475,250,475,475.88,475.12,475.88,475.26Z" style="fill:#263238"></path></g></svg>