<svg xmlns="http://www.w3.org/2000/svg" xmlns:xlink="http://www.w3.org/1999/xlink" viewBox="0 0 500 500"><defs><clipPath id="freepik--clip-path--inject-147"><path d="M268.48,109.58c0-1.42-.94-2.85-2.82-3.93a15,15,0,0,0-13.6,0c-1.88,1.08-2.81,2.51-2.81,3.93h0V112h0c0,1.42.93,2.84,2.81,3.92a15,15,0,0,0,13.6,0c1.88-1.08,2.82-2.5,2.82-3.92h0v-2.37Z" style="fill:none"></path></clipPath><clipPath id="freepik--clip-path-2--inject-147"><path d="M250.54,119.42c0-1.42-.94-2.84-2.82-3.92a15,15,0,0,0-13.6,0c-1.87,1.08-2.81,2.5-2.81,3.92h0v2.37h0c0,1.42.94,2.84,2.81,3.93a15,15,0,0,0,13.6,0c1.88-1.09,2.82-2.51,2.82-3.93h0v-2.37Z" style="fill:none"></path></clipPath></defs><g id="freepik--Floor--inject-147"><path id="freepik--floor--inject-147" d="M84.91,453c-91.17-52.64-91.18-138,0-190.63s239-52.64,330.18,0,91.18,138,0,190.63S176.09,505.62,84.91,453Z" style="fill:#f5f5f5"></path></g><g id="freepik--Shadows--inject-147"><path id="freepik--Shadow--inject-147" d="M125.43,415,67.17,381.42c-1.36-.78-1.36-2.05,0-2.84l144-83.44a5.44,5.44,0,0,1,4.91,0l58.26,33.58c1.36.78,1.36,2,0,2.84L130.34,415A5.44,5.44,0,0,1,125.43,415Z" style="fill:#e0e0e0"></path><ellipse id="freepik--shadow--inject-147" cx="70.26" cy="412.88" rx="24.13" ry="13.93" style="fill:#e0e0e0"></ellipse><ellipse id="freepik--shadow--inject-147" cx="401.67" cy="367.93" rx="59.7" ry="34.47" style="fill:#e0e0e0"></ellipse><ellipse id="freepik--shadow--inject-147" cx="283.87" cy="393.73" rx="72.54" ry="41.88" style="fill:#e0e0e0"></ellipse></g><g id="freepik--Shelves--inject-147"><g id="freepik--Shelf--inject-147"><g id="freepik--shelf--inject-147"><polygon points="275.84 52.98 222.25 83.92 241.74 95.17 295.33 64.23 275.84 52.98" style="fill:#455a64"></polygon><polygon points="295.33 64.23 295.33 67.05 241.74 97.99 241.74 95.17 295.33 64.23" style="fill:#263238"></polygon><polygon points="222.25 83.92 241.74 95.17 241.74 97.99 222.25 86.74 222.25 83.92" style="fill:#37474f"></polygon></g><path id="freepik--shadow--inject-147" d="M284.56,60.12c3.79,2.18,3.79,5.72,0,7.91a15.17,15.17,0,0,1-13.7,0c-3.78-2.19-3.78-5.73,0-7.91A15.11,15.11,0,0,1,284.56,60.12Z" style="fill:#37474f"></path><path id="freepik--shadow--inject-147" d="M258.19,80.74l8.33-4.81a1.09,1.09,0,0,0,0-2.07l-5.71-3.29a3.92,3.92,0,0,0-3.59,0l-8.33,4.8a1.1,1.1,0,0,0,0,2.08l5.7,3.29A4,4,0,0,0,258.19,80.74Z" style="fill:#37474f"></path><path id="freepik--shadow--inject-147" d="M241.23,90.53l8.33-4.81a1.1,1.1,0,0,0,0-2.08l-5.7-3.29a4,4,0,0,0-3.6,0l-8.32,4.81a1.09,1.09,0,0,0,0,2.07l5.7,3.3A4,4,0,0,0,241.23,90.53Z" style="fill:#37474f"></path><g id="freepik--Spray--inject-147"><path d="M282.91,66.31a11.48,11.48,0,0,1-10.4,0,3.63,3.63,0,0,1-2.14-3v-22a3.61,3.61,0,0,1,2.14-3,11.48,11.48,0,0,1,10.4,0,3.61,3.61,0,0,1,2.14,3v22A3.61,3.61,0,0,1,282.91,66.31Z" style="fill:#BA68C8"></path><path d="M277.36,66.37c-2.86-.93-3.25-2.61-3.25-7V39l.26-1.41a8.38,8.38,0,0,0-1.86.78,3.61,3.61,0,0,0-2.14,3v22a3.63,3.63,0,0,0,2.14,3,11.48,11.48,0,0,0,10.4,0,5.55,5.55,0,0,0,1.14-.85A8.75,8.75,0,0,1,277.36,66.37Z" style="opacity:0.15"></path><path d="M283.44,44.91a12.71,12.71,0,0,1-11.46,0,4,4,0,0,1-2.36-3.29V39.77c0-1.19.78-2.38,2.36-3.29a12.65,12.65,0,0,1,11.46,0c1.58.91,2.36,2.09,2.36,3.28v1.86C285.8,42.81,285,44,283.44,44.91Z" style="fill:#37474f"></path><path d="M283.44,43.1a12.71,12.71,0,0,1-11.46,0c-3.17-1.83-3.17-4.8,0-6.62a12.65,12.65,0,0,1,11.46,0C286.61,38.3,286.61,41.27,283.44,43.1Z" style="fill:#475c66"></path><path d="M282.91,42a11.48,11.48,0,0,1-10.4,0,3.63,3.63,0,0,1-2.14-3V32a3.64,3.64,0,0,1,2.14-3,11.54,11.54,0,0,1,10.4,0,3.64,3.64,0,0,1,2.14,3v7.09A3.61,3.61,0,0,1,282.91,42Z" style="fill:#37474f"></path><path d="M282.91,35a11.48,11.48,0,0,1-10.4,0c-2.87-1.66-2.87-4.35,0-6a11.54,11.54,0,0,1,10.4,0C285.78,30.64,285.78,33.33,282.91,35Z" style="fill:#475c66"></path></g><g id="freepik--Bottle--inject-147"><path d="M254.07,51.66l2.61-1.5a2.25,2.25,0,0,1,2.27-.22c.58.33,4.4,2.52,5,2.87a2.27,2.27,0,0,1,.91,2.06V73.68a1.77,1.77,0,0,1-.81,1.39l-7.42,4.28a.57.57,0,0,1-.57.05l-5-2.85a.57.57,0,0,1-.24-.52V57.22A7.11,7.11,0,0,1,254.07,51.66Z" style="fill:#BA68C8"></path><path d="M254.07,51.66l2.61-1.5a2.25,2.25,0,0,1,2.27-.22c.58.33,4.4,2.52,5,2.87a2.27,2.27,0,0,1,.91,2.06v8.46l-13.67-7.89A7.14,7.14,0,0,1,254.07,51.66Z" style="fill:#fff;opacity:0.7000000000000001"></path><path d="M264.85,73.68a1.77,1.77,0,0,1-.81,1.39l-7.42,4.28a.57.57,0,0,1-.57.05l-5-2.85a.57.57,0,0,1-.24-.52V57.22a5.72,5.72,0,0,1,.32-1.78l13.67,7.89Z" style="fill:#fff;opacity:0.6000000000000001"></path><path d="M256.62,79.35a.49.49,0,0,1-.8-.47V60.08A7.07,7.07,0,0,1,259,54.52l2.61-1.5a2.25,2.25,0,0,1,2.3-.21,2.27,2.27,0,0,1,.91,2.06V73.68a1.77,1.77,0,0,1-.81,1.39Z" style="fill:#BA68C8"></path><path d="M256.62,79.35a.49.49,0,0,1-.8-.47V60.08A7.07,7.07,0,0,1,259,54.52l2.61-1.5a2.25,2.25,0,0,1,2.3-.21,2.27,2.27,0,0,1,.91,2.06V73.68a1.77,1.77,0,0,1-.81,1.39Z" style="fill:#fff;opacity:0.8"></path><path d="M255.61,49.65v2.74a1.08,1.08,0,0,0,.63.88,3.35,3.35,0,0,0,3,0,1.08,1.08,0,0,0,.63-.88V49.65Z" style="fill:#37474f"></path><path d="M256.24,50.52a3.35,3.35,0,0,0,3,0,.92.92,0,0,0,0-1.74,3.29,3.29,0,0,0-3,0A.92.92,0,0,0,256.24,50.52Z" style="fill:#455a64"></path><path d="M257.12,45.25v4.43a.33.33,0,0,0,.18.26,1,1,0,0,0,.9,0,.35.35,0,0,0,.19-.26V45.25Z" style="fill:#37474f"></path><path d="M257.12,47.14h.1a11,11,0,0,1,1.17.14v-2h-1.27Z" style="fill:#263238"></path><path d="M261.62,46.86l-.44-.31a2.64,2.64,0,0,1-1.1-1.63,1.23,1.23,0,0,0-.84-.79,3.75,3.75,0,0,0-2.53.08c-1.33.53-1.58,1.53-.64,2.07a2.72,2.72,0,0,0,1.15.32,7.53,7.53,0,0,1,2.78.63l.54.25A1.08,1.08,0,0,0,261.62,46.86Z" style="fill:#455a64"></path></g><g id="freepik--bottle--inject-147"><path d="M237.07,61.46l2.61-1.5a2.25,2.25,0,0,1,2.27-.23c.58.34,4.4,2.52,5,2.87a2.28,2.28,0,0,1,.91,2.06V83.47a1.79,1.79,0,0,1-.8,1.39l-7.42,4.28a.58.58,0,0,1-.57.06l-5-2.86a.56.56,0,0,1-.23-.52V67A7.09,7.09,0,0,1,237.07,61.46Z" style="fill:#BA68C8"></path><path d="M237.07,61.46l2.61-1.5a2.25,2.25,0,0,1,2.27-.23c.58.34,4.4,2.52,5,2.87a2.28,2.28,0,0,1,.91,2.06v8.46l-13.66-7.89A7,7,0,0,1,237.07,61.46Z" style="fill:#fff;opacity:0.7000000000000001"></path><path d="M247.84,83.47a1.79,1.79,0,0,1-.8,1.39l-7.42,4.28a.58.58,0,0,1-.57.06l-5-2.86a.56.56,0,0,1-.23-.52V67a5.73,5.73,0,0,1,.32-1.79l13.66,7.89Z" style="fill:#fff;opacity:0.6000000000000001"></path><path d="M239.62,89.14a.49.49,0,0,1-.81-.46V69.87A7.12,7.12,0,0,1,242,64.31l2.62-1.5a2.23,2.23,0,0,1,2.29-.21,2.28,2.28,0,0,1,.91,2.06V83.47a1.79,1.79,0,0,1-.8,1.39Z" style="fill:#BA68C8"></path><path d="M239.62,89.14a.49.49,0,0,1-.81-.46V69.87A7.12,7.12,0,0,1,242,64.31l2.62-1.5a2.23,2.23,0,0,1,2.29-.21,2.28,2.28,0,0,1,.91,2.06V83.47a1.79,1.79,0,0,1-.8,1.39Z" style="fill:#fff;opacity:0.8"></path><path d="M238.61,59.44v2.75a1.07,1.07,0,0,0,.63.87,3.35,3.35,0,0,0,3,0,1.05,1.05,0,0,0,.62-.87V59.44Z" style="fill:#37474f"></path><path d="M239.24,60.32a3.35,3.35,0,0,0,3,0,.93.93,0,0,0,0-1.75,3.35,3.35,0,0,0-3,0C238.4,59.05,238.4,59.83,239.24,60.32Z" style="fill:#455a64"></path><path d="M240.11,55.05v4.42a.33.33,0,0,0,.19.26,1,1,0,0,0,.9,0,.32.32,0,0,0,.18-.26V55.05Z" style="fill:#37474f"></path><path d="M240.11,56.93h.11a10.48,10.48,0,0,1,1.16.15v-2h-1.27Z" style="fill:#263238"></path><path d="M244.61,56.65l-.44-.31a2.59,2.59,0,0,1-1.09-1.62,1.21,1.21,0,0,0-.84-.79,3.75,3.75,0,0,0-2.53.08c-1.33.53-1.58,1.53-.65,2.07a2.76,2.76,0,0,0,1.16.31A8,8,0,0,1,243,57l.54.25A1.06,1.06,0,0,0,244.61,56.65Z" style="fill:#455a64"></path></g></g><g id="freepik--shelf--inject-147"><g id="freepik--shelf--inject-147"><polygon points="275.84 100.8 222.25 131.74 241.74 142.99 295.33 112.05 275.84 100.8" style="fill:#455a64"></polygon><polygon points="295.33 112.05 295.33 114.87 241.74 145.81 241.74 142.99 295.33 112.05" style="fill:#263238"></polygon><polygon points="222.25 131.74 241.74 142.99 241.74 145.81 222.25 134.56 222.25 131.74" style="fill:#37474f"></polygon></g><path id="freepik--shadow--inject-147" d="M284.32,108.31c3.74,2.16,3.74,5.66,0,7.82a15,15,0,0,1-13.54,0c-3.74-2.16-3.74-5.66,0-7.82A15,15,0,0,1,284.32,108.31Z" style="fill:#37474f"></path><path id="freepik--shadow--inject-147" d="M266.24,117.44c4.11,2.37,4.11,6.22,0,8.6a16.5,16.5,0,0,1-14.9,0c-4.11-2.38-4.11-6.23,0-8.6A16.44,16.44,0,0,1,266.24,117.44Z" style="fill:#37474f"></path><path id="freepik--shadow--inject-147" d="M248.3,127.28c4.11,2.38,4.11,6.23,0,8.6a16.44,16.44,0,0,1-14.9,0c-4.11-2.37-4.11-6.22,0-8.6A16.5,16.5,0,0,1,248.3,127.28Z" style="fill:#37474f"></path><g id="freepik--Jar--inject-147"><path d="M267.93,111.82c0-1.34-.89-2.67-2.66-3.7a14.19,14.19,0,0,0-12.82,0c-1.77,1-2.65,2.36-2.65,3.7h0v8.71h0c0,1.34.88,2.68,2.65,3.7a14.13,14.13,0,0,0,12.82,0c1.77-1,2.66-2.36,2.66-3.7h0Z" style="fill:#BA68C8"></path><path d="M267.93,111.82c0-1.34-.89-2.67-2.66-3.7a14.19,14.19,0,0,0-12.82,0c-1.77,1-2.65,2.36-2.65,3.7h0v8.71h0c0,1.34.88,2.68,2.65,3.7a14.13,14.13,0,0,0,12.82,0c1.77-1,2.66-2.36,2.66-3.7h0Z" style="fill:#fff;opacity:0.5"></path><path d="M264.44,107.7v17a7.16,7.16,0,0,0,.83-.42,6.71,6.71,0,0,0,1.44-1.09V109.22a7.07,7.07,0,0,0-1.44-1.1A9.19,9.19,0,0,0,264.44,107.7Z" style="fill:#fff;opacity:0.4"></path><path d="M262.07,125.43a13,13,0,0,0,1.3-.36V107.29a13,13,0,0,0-1.3-.36Z" style="fill:#fff;opacity:0.4"></path><path d="M267.77,110.86a6.45,6.45,0,0,0-2.11-1.83,15.17,15.17,0,0,0-12.78-.42v-.71l-.43.22c-1.77,1-2.65,2.36-2.65,3.7v3.55h0v5.16c0,1.34.88,2.68,2.65,3.7a14.13,14.13,0,0,0,12.82,0,6.5,6.5,0,0,0,1.62-1.26c-1.69,1.58-5.88,2.44-9,1.83s-5-2.61-5-4V117.3a15.21,15.21,0,0,0,12.78-.42,6.2,6.2,0,0,0,2.27-2.09v-3A3.22,3.22,0,0,0,267.77,110.86Z" style="fill:#BA68C8;opacity:0.2"></path><path d="M251.33,121.18V108.91a3.9,3.9,0,0,0-1.53,2.91v8.71c0,1.34.88,2.68,2.65,3.7a11.34,11.34,0,0,0,3.44,1.24C252.49,124.55,251.33,122.22,251.33,121.18Z" style="opacity:0.1"></path><path d="M253,123.82a14.72,14.72,0,0,0,11.78,0c3.25-1.63,3.25-4.28,0-5.92a14.8,14.8,0,0,0-11.78,0C249.72,119.54,249.72,122.19,253,123.82Z" style="fill:#BA68C8;opacity:0.30000000000000004"></path><path d="M268.48,109.58c0-1.42-.94-2.85-2.82-3.93a15,15,0,0,0-13.6,0c-1.88,1.08-2.81,2.51-2.81,3.93h0V112h0c0,1.42.93,2.84,2.81,3.92a15,15,0,0,0,13.6,0c1.88-1.08,2.82-2.5,2.82-3.92h0v-2.37Z" style="fill:#e0e0e0"></path><g style="clip-path:url(#freepik--clip-path--inject-147)"><g style="opacity:0.2"><rect x="268.25" y="109.18" width="0.46" height="4.74"></rect><rect x="267.19" y="110.97" width="0.46" height="4.77"></rect><rect x="265.58" y="112.2" width="0.46" height="4.81"></rect><rect x="263.75" y="112.97" width="0.46" height="4.84"></rect><rect x="261.74" y="113.48" width="0.46" height="4.88"></rect><rect x="259.61" y="113.74" width="0.46" height="4.92"></rect><rect x="257.44" y="113.73" width="0.46" height="4.95"></rect><rect x="255.33" y="113.45" width="0.46" height="4.99"></rect><rect x="253.35" y="112.88" width="0.46" height="5.02"></rect><rect x="251.56" y="112" width="0.46" height="5.06"></rect><rect x="250.14" y="110.77" width="0.46" height="5.1"></rect><rect x="249.01" y="108.79" width="0.46" height="5.13"></rect></g><path d="M261.16,117.33c-4.76,0-7.27-1.52-8-2.78-.58-1-.68-.84-.68-2.59,0,0-.54-4-.43-4s-1.14-.27-2.07-.47a3.62,3.62,0,0,0-.7,2.1h0V112h0c0,1.42.93,2.84,2.81,3.92A14.76,14.76,0,0,0,261.16,117.33Z" style="opacity:0.1"></path></g><path d="M252.06,113.5a15,15,0,0,0,13.6,0c3.76-2.17,3.76-5.68,0-7.85a15,15,0,0,0-13.6,0C248.31,107.82,248.31,111.33,252.06,113.5Z" style="fill:#ebebeb"></path><path d="M266.18,113.17c3.22-2.18,3.05-5.46-.52-7.52a13.79,13.79,0,0,0-6.61-1.62,10.71,10.71,0,0,0-3.51,1.2c-3.25,1.85-3.25,5.56,0,7.41A13.28,13.28,0,0,0,266.18,113.17Z" style="fill:#f5f5f5"></path><path d="M250,111.71s3.13,3.15,9.17,3,8.46-3.46,8.78-4.49a3.75,3.75,0,0,0-.82-3.48,4,4,0,0,1,1.37,2.86V112c0,.36.18,1.6-1.77,3.2a4.72,4.72,0,0,0,1.15-2.55v-1s-2.14,3.58-8.71,3.58S250.31,112.24,250,111.71Z" style="fill:#fff"></path></g><g id="freepik--jar--inject-147"><path d="M250,121.67c0-1.34-.89-2.68-2.66-3.7a14.19,14.19,0,0,0-12.82,0c-1.77,1-2.65,2.36-2.65,3.7h0v8.71h0c0,1.34.88,2.68,2.65,3.7a14.13,14.13,0,0,0,12.82,0c1.77-1,2.66-2.36,2.66-3.7h0Z" style="fill:#BA68C8"></path><path d="M250,121.67c0-1.34-.89-2.68-2.66-3.7a14.19,14.19,0,0,0-12.82,0c-1.77,1-2.65,2.36-2.65,3.7h0v8.71h0c0,1.34.88,2.68,2.65,3.7a14.13,14.13,0,0,0,12.82,0c1.77-1,2.66-2.36,2.66-3.7h0Z" style="opacity:0.2"></path><path d="M246.5,117.55v17a9.19,9.19,0,0,0,.83-.42,6.47,6.47,0,0,0,1.44-1.09V119.06a6.47,6.47,0,0,0-1.44-1.09A9.19,9.19,0,0,0,246.5,117.55Z" style="fill:#fff;opacity:0.4"></path><path d="M244.13,135.27a10.78,10.78,0,0,0,1.3-.35V117.14a13,13,0,0,0-1.3-.36Z" style="fill:#fff;opacity:0.4"></path><path d="M249.83,120.7a6.56,6.56,0,0,0-2.11-1.83,15.21,15.21,0,0,0-12.78-.42v-.7l-.43.22c-1.77,1-2.65,2.36-2.65,3.7v3.54h0v5.17c0,1.34.88,2.68,2.65,3.7a14.13,14.13,0,0,0,12.82,0,6.55,6.55,0,0,0,1.62-1.26c-1.69,1.57-5.88,2.44-9,1.82s-5-2.6-5-4v-3.49a15.17,15.17,0,0,0,12.78-.42,6.12,6.12,0,0,0,2.27-2.09v-3A3,3,0,0,0,249.83,120.7Z" style="fill:#BA68C8;opacity:0.2"></path><path d="M233.39,131V118.76a3.88,3.88,0,0,0-1.53,2.91v8.71c0,1.34.88,2.68,2.65,3.7a11.41,11.41,0,0,0,3.45,1.24C234.55,134.4,233.39,132.07,233.39,131Z" style="opacity:0.1"></path><path d="M235,133.67a14.8,14.8,0,0,0,11.78,0c3.26-1.64,3.26-4.29,0-5.92a14.72,14.72,0,0,0-11.78,0C231.78,129.38,231.78,132,235,133.67Z" style="fill:#BA68C8;opacity:0.30000000000000004"></path><path d="M250.54,119.42c0-1.42-.94-2.84-2.82-3.92a15,15,0,0,0-13.6,0c-1.87,1.08-2.81,2.5-2.81,3.92h0v2.37h0c0,1.42.94,2.84,2.81,3.93a15,15,0,0,0,13.6,0c1.88-1.09,2.82-2.51,2.82-3.93h0v-2.37Z" style="fill:#e0e0e0"></path><g style="clip-path:url(#freepik--clip-path-2--inject-147)"><g style="opacity:0.2"><rect x="250.31" y="119.03" width="0.46" height="4.74"></rect><rect x="249.25" y="120.82" width="0.46" height="4.77"></rect><rect x="247.64" y="122.05" width="0.46" height="4.81"></rect><rect x="245.81" y="122.82" width="0.46" height="4.84"></rect><rect x="243.8" y="123.33" width="0.46" height="4.88"></rect><rect x="241.67" y="123.58" width="0.46" height="4.92"></rect><rect x="239.5" y="123.58" width="0.46" height="4.95"></rect><rect x="237.39" y="123.29" width="0.46" height="4.99"></rect><rect x="235.41" y="122.73" width="0.46" height="5.02"></rect><rect x="233.62" y="121.84" width="0.46" height="5.06"></rect><rect x="232.2" y="120.62" width="0.46" height="5.1"></rect><rect x="231.08" y="118.63" width="0.46" height="5.13"></rect></g><path d="M243.22,127.18c-4.75,0-7.27-1.52-8-2.78-.58-1-.68-.84-.68-2.59,0,0-.53-4-.43-4s-1.14-.27-2.07-.47a3.61,3.61,0,0,0-.7,2.09h0v2.37h0c0,1.42.94,2.84,2.81,3.93A14.84,14.84,0,0,0,243.22,127.18Z" style="opacity:0.1"></path></g><path d="M234.12,123.35a15,15,0,0,0,13.6,0c3.76-2.17,3.76-5.68,0-7.85a15,15,0,0,0-13.6,0C230.37,117.67,230.37,121.18,234.12,123.35Z" style="fill:#ebebeb"></path><path d="M248.24,123c3.22-2.18,3.06-5.46-.52-7.52a13.67,13.67,0,0,0-6.61-1.62,10.47,10.47,0,0,0-3.51,1.19c-3.25,1.86-3.25,5.56,0,7.42A13.28,13.28,0,0,0,248.24,123Z" style="fill:#f5f5f5"></path><path d="M232,121.55s3.13,3.15,9.17,3,8.46-3.47,8.78-4.49a3.77,3.77,0,0,0-.81-3.48,4,4,0,0,1,1.36,2.85v2.37c0,.36.19,1.6-1.77,3.21a4.72,4.72,0,0,0,1.15-2.55v-1s-2.14,3.57-8.71,3.57S232.37,122.09,232,121.55Z" style="fill:#fff"></path></g><g id="freepik--jar--inject-147"><path d="M283.3,92.37a8.1,8.1,0,0,0-1.11-.53A1.88,1.88,0,0,1,281,90.11V88h-6.9v2.11a1.88,1.88,0,0,1-1.2,1.73,7.46,7.46,0,0,0-1.1.53c-1.59.92-2.38,2.12-2.38,3.32v15.93c0,1.2.79,2.4,2.38,3.32a12.73,12.73,0,0,0,11.5,0c1.58-.92,2.38-2.12,2.38-3.32V95.69C285.68,94.49,284.88,93.29,283.3,92.37Z" style="fill:#BA68C8"></path><path d="M283.3,92.37a8.1,8.1,0,0,0-1.11-.53A1.88,1.88,0,0,1,281,90.11V88h-6.9v2.11a1.88,1.88,0,0,1-1.2,1.73,7.46,7.46,0,0,0-1.1.53c-1.59.92-2.38,2.12-2.38,3.32v15.93c0,1.2.79,2.4,2.38,3.32a12.73,12.73,0,0,0,11.5,0c1.58-.92,2.38-2.12,2.38-3.32V95.69C285.68,94.49,284.88,93.29,283.3,92.37Z" style="opacity:0.2"></path><path d="M272.29,114.68c-2.9-1.66-2.9-4.35,0-6a11.73,11.73,0,0,1,10.52,0c2.9,1.66,2.9,4.35,0,6A11.73,11.73,0,0,1,272.29,114.68Z" style="opacity:0.2"></path><path d="M281.66,90.22a8.91,8.91,0,0,0-5.53-.88V88h-2v2.11a1.88,1.88,0,0,1-1.2,1.73,8.62,8.62,0,0,0-1.1.53l0,0a4,4,0,0,0-2.34,3.3v15.93c0,1.2.79,2.4,2.38,3.32a12.75,12.75,0,0,0,8.44,1.11c-6.61.45-8.2-2.35-8.2-4.38V96.18a2.33,2.33,0,0,1,.6-1.8,4.82,4.82,0,0,0,.81.58,9.07,9.07,0,0,0,8.21,0C283.92,93.65,283.92,91.53,281.66,90.22Z" style="opacity:0.15"></path><path d="M283.3,92.37a8.1,8.1,0,0,0-1.11-.53A1.88,1.88,0,0,1,281,90.11V88h-.76v2.82a2.07,2.07,0,0,0,1.21,1.63c.65.35,2.72,1.25,3.22,2.23s.32,2.79.32,5v11.25a5.11,5.11,0,0,1-3.25,4.73,9.57,9.57,0,0,0,1.56-.69c1.58-.92,2.38-2.07,2.38-3.34V95.69C285.68,94.49,284.88,93.29,283.3,92.37Z" style="fill:#fff;opacity:0.4"></path><path d="M283.36,91v.6a2.9,2.9,0,0,1-1.71,2.38,9.07,9.07,0,0,1-8.21,0,3.91,3.91,0,0,1-1.27-1.11,2.19,2.19,0,0,1-.42-1.26V91a1.72,1.72,0,0,1,0-.39,3.11,3.11,0,0,1,1.65-2l.09,0a9.1,9.1,0,0,1,8.12,0,3.1,3.1,0,0,1,1.66,2A2,2,0,0,1,283.36,91Z" style="fill:#37474f"></path><path d="M278,94.3V92.16c0-.84.21.3-1.27.3-1.29,0-2.43-3-3.23-3.93l-.09,0a3.11,3.11,0,0,0-1.65,2,1.72,1.72,0,0,0,0,.39v.62a2.19,2.19,0,0,0,.42,1.26,3.91,3.91,0,0,0,1.27,1.11,9.07,9.07,0,0,0,8.21,0C280.05,94.57,278,95.1,278,94.3Z" style="fill:#263238"></path><path d="M273.45,93.32c-2.27-1.31-2.27-3.43,0-4.74a9.07,9.07,0,0,1,8.21,0c2.26,1.31,2.26,3.43,0,4.74A9.07,9.07,0,0,1,273.45,93.32Z" style="fill:#BA68C8"></path><path d="M283.36,89v1.2a1.83,1.83,0,0,1-.05.4,3.1,3.1,0,0,1-1.66,2,8,8,0,0,1-3.62,1,8.77,8.77,0,0,1-4.59-1,4,4,0,0,1-1.27-1.11,2.19,2.19,0,0,1-.38-.86,1.72,1.72,0,0,1,0-.39V88.94a2.9,2.9,0,0,1,1.69-2.38l.31-.16a9.15,9.15,0,0,1,7.9.16A2.92,2.92,0,0,1,283.36,89Z" style="fill:#37474f"></path><path d="M273.45,91.28c-2.27-1.31-2.27-3.43,0-4.74a9.07,9.07,0,0,1,8.21,0c2.26,1.31,2.26,3.43,0,4.74A9.07,9.07,0,0,1,273.45,91.28Z" style="fill:#455a64"></path><path d="M272.17,91.42a4,4,0,0,0,1.27,1.11,8.77,8.77,0,0,0,4.59,1h0c0-.43.25-.75-1.27-1-1.26-.24-3.13-.77-4-2.15a2.93,2.93,0,0,1,1-3.91l-.31.16a2.9,2.9,0,0,0-1.69,2.38v1.23a1.72,1.72,0,0,0,0,.39A2.19,2.19,0,0,0,272.17,91.42Z" style="fill:#263238"></path></g></g></g><g id="freepik--Mirror--inject-147"><g id="freepik--mirror--inject-147"><polygon points="75.32 247.99 197.18 177.63 197.18 52.27 75.32 122.63 75.32 247.99" style="fill:#fafafa"></polygon><g style="opacity:0.4"><g id="freepik--Chest--inject-147"><g id="freepik--chest--inject-147"><path d="M166.35,195.44l-11.85,6.85,0-.08c-1.85-6-3.89-31-4.72-41.88-.23-3.13-.36-5.09-.36-5.09a9.51,9.51,0,0,1,9.11,2.37,13,13,0,0,1,3.29,6.25c.48,2,.91,4.39,1.3,7,.7,4.58,1.24,9.76,1.64,14.25.39,4.3.65,8,.78,9.92Z" style="fill:#ffa8a7"></path><path d="M160.92,190.35l.69,7.83-7.11,4.11-22.7,13.1-9.87,5.69a186.66,186.66,0,0,1-1.48-30.65c2.76-2.15,3.62-2.92,4.89-11.43.83-5.54-.86-11.87-1.93-15.13-.44-1.36-.78-2.18-.78-2.18l7.08-2.15,2.85-.87.62-.12,7.9-1.55h0l3.39-.67,1.44-.28,3.47-.81s2,1.76,4.7,4.5a68.68,68.68,0,0,1,9,11.1,31.56,31.56,0,0,1,1.71,3.08,12.58,12.58,0,0,1-.07,11.17A17.55,17.55,0,0,1,160.92,190.35Z" style="fill:#f0f0f0"></path><path d="M142.27,148.63c-.42.26-.85.5-1.3.72-1.87.88-9.54,3.42-11.1,2.14-5.9-4.85-13.14-11-13-21.75a11.73,11.73,0,0,1,5.44-10.05c.21-5.83,3-8.3,7.26-10,6.95-2.9,13.92-3.22,22.76.73,4.1,1.84,7.62,4.41,8.85,9.24,1.09,4.31.78,11.76-2.75,15.29-1.75,1.74-4.14,2.29-5.89,3.94-2.48,2.32-4.44,5.11-7,7.31A27.07,27.07,0,0,1,142.27,148.63Z" style="fill:#BA68C8"></path><g style="opacity:0.2"><path d="M142.27,148.63c-.42.26-.85.5-1.3.72-1.87.88-9.54,3.42-11.1,2.14-5.9-4.85-13.14-11-13-21.75a11.73,11.73,0,0,1,5.44-10.05c.21-5.83,3-8.3,7.26-10,6.95-2.9,13.92-3.22,22.76.73,4.1,1.84,7.62,4.41,8.85,9.24,1.09,4.31.78,11.76-2.75,15.29-1.75,1.74-4.14,2.29-5.89,3.94-2.48,2.32-4.44,5.11-7,7.31A27.07,27.07,0,0,1,142.27,148.63Z"></path></g><path d="M148.11,134.37a1.52,1.52,0,0,1-.3-.46c2.28,0,4.94.15,6.85,1.57,2.39,1.76,2.93,5.37,2.41,8.1-.45,2.39-1.77,5,.12,7.08,1.42,1.59,4.21,1.65,5.12-.49-.55,7.73-7.48,10.33-13.4,10.14-3.47-.11-7.35-.94-8.36-4.6a21.3,21.3,0,0,1,.81-13.22,12.92,12.92,0,0,1,3.76-5.49C146.07,136.29,147.27,136.19,148.11,134.37Z" style="fill:#BA68C8"></path><path d="M148.11,134.37a1.52,1.52,0,0,1-.3-.46c2.28,0,4.94.15,6.85,1.57,2.39,1.76,2.93,5.37,2.41,8.1-.45,2.39-1.77,5,.12,7.08,1.42,1.59,4.21,1.65,5.12-.49-.55,7.73-7.48,10.33-13.4,10.14-3.47-.11-7.35-.94-8.36-4.6a21.3,21.3,0,0,1,.81-13.22,12.92,12.92,0,0,1,3.76-5.49C146.07,136.29,147.27,136.19,148.11,134.37Z" style="opacity:0.4"></path><path d="M153.67,119.69c3.49,2.67,5.89,5.84,5.39,18.87-.42,11-4,13.71-5.85,14.47s-5.27.23-8.63-.39l-.14,4.58s5.79,6.9,5.45,9.93-8,4.29-12.28,1.26-7.91-8.81-7.91-8.81l.33-15.31s-2,1.89-5.33-1.1c-2.74-2.47-3.62-6.58-1.42-8.74a4.69,4.69,0,0,1,5.32-.76,3.27,3.27,0,0,1,1.83,2.27,8,8,0,0,0,1.33,2.84c.8.89,1.71,2.86.66,3.85,2.77.19,4.07-1.69,4.66-4.17a6.26,6.26,0,0,1,2.19-3.56,15.81,15.81,0,0,1,4-2.17c1.27-.57,2.54-1.16,3.75-1.85a12.48,12.48,0,0,0,4.27-3.67C154.43,122.7,153.67,119.69,153.67,119.69Z" style="fill:#ffa8a7"></path><path d="M146.77,135.59a1.41,1.41,0,0,1-1.33,1.49,1.42,1.42,0,0,1-1.44-1.4,1.39,1.39,0,1,1,2.77-.09Z" style="fill:#263238"></path><path d="M146.83,144.06l5,1.1a2.52,2.52,0,0,1-3,2A2.68,2.68,0,0,1,146.83,144.06Z" style="fill:#b16668"></path><path d="M147.94,145.07a1.91,1.91,0,0,0-1,.3,2.6,2.6,0,0,0,1.93,1.83,2.3,2.3,0,0,0,1,0,1.2,1.2,0,0,0,0-.2A1.94,1.94,0,0,0,147.94,145.07Z" style="fill:#f28f8f"></path><path d="M158.23,131.5l-2.78-2a1.64,1.64,0,0,1,2.34-.44A1.8,1.8,0,0,1,158.23,131.5Z" style="fill:#263238"></path><path d="M157.53,134.75a1.39,1.39,0,1,1-1.44-1.39A1.41,1.41,0,0,1,157.53,134.75Z" style="fill:#263238"></path><polygon points="150.59 133.42 151.92 142.37 156.74 140.3 150.59 133.42" style="fill:#f28f8f"></polygon><path d="M144.58,152.64c-3.55-.52-10.82-2.73-11.92-5.63a7.44,7.44,0,0,0,2.51,3.72c2.15,1.91,9.37,4.12,9.37,4.12Z" style="fill:#f28f8f"></path></g><path d="M131.8,215.39l-9.87,5.69-4.57,2.65h0c-1.55-.61-2.89-1.17-3.93-1.66-4.61-2.16-4.72-4.54-4.67-8.59,0-3.76-.79-33,1.55-40.5,1.68-5.38,4-8.61,8.76-10.34a22.79,22.79,0,0,1,3.57-.95,7.35,7.35,0,0,1,1.58,2.07c3.12,5.73,4.07,18.74-.26,26.32l-.87,20.76S126.85,212.83,131.8,215.39Z" style="fill:#ffa8a7"></path></g><path d="M122.5,141.36a15.34,15.34,0,0,0,3,3.11c1.8,1.26,3.91,1.11,4.58-.18,1-.08,2.49,1,3.24,1.6,2.75,2.26,1.89,5.2.73,8.08-.6,1.51-1.32,3.86-.57,5.42a9.8,9.8,0,0,0,2,2.13c.49.27,3-.23,2.73-1,1.23,3.25-3.85,6-6.49,5.35-2.18-.54-3.27-3.12-5.83-2.46a8.26,8.26,0,0,1-5.07.21,5.25,5.25,0,0,1-2.7-2c-1.64-2.23-1.1-4.22-.72-6.68a6.63,6.63,0,0,0-1.3,5.82c-3.52-1.26-4.32-5.92-3.67-9.14.37-1.87,1.51-3.24,2.25-4.93a9.21,9.21,0,0,0,1-4.32c-.19-3.91-1-7.36-.86-11.34a15,15,0,0,1,2.7-8.1,7.79,7.79,0,0,1,4.78-3.24S117.25,134,122.5,141.36Z" style="fill:#BA68C8"></path><path d="M122.5,141.36a15.34,15.34,0,0,0,3,3.11c1.8,1.26,3.91,1.11,4.58-.18,1-.08,2.49,1,3.24,1.6,2.75,2.26,1.89,5.2.73,8.08-.6,1.51-1.32,3.86-.57,5.42a9.8,9.8,0,0,0,2,2.13c.49.27,3-.23,2.73-1,1.23,3.25-3.85,6-6.49,5.35-2.18-.54-3.27-3.12-5.83-2.46a8.26,8.26,0,0,1-5.07.21,5.25,5.25,0,0,1-2.7-2c-1.64-2.23-1.1-4.22-.72-6.68a6.63,6.63,0,0,0-1.3,5.82c-3.52-1.26-4.32-5.92-3.67-9.14.37-1.87,1.51-3.24,2.25-4.93a9.21,9.21,0,0,0,1-4.32c-.19-3.91-1-7.36-.86-11.34a15,15,0,0,1,2.7-8.1,7.79,7.79,0,0,1,4.78-3.24S117.25,134,122.5,141.36Z" style="opacity:0.2"></path><circle cx="128.11" cy="141.97" r="1.23" style="fill:#455a64"></circle></g><polygon points="71.45 245.75 75.32 247.99 75.32 122.63 71.44 120.39 71.45 245.75" style="fill:#37474f"></polygon><polygon points="197.18 52.27 193.31 50.03 71.44 120.39 75.32 122.63 197.18 52.27" style="fill:#455a64"></polygon><g style="opacity:0.1"><polygon points="75.32 138.55 75.32 147.66 92.86 112.5 86.48 116.19 75.32 138.55" style="fill:#ba69c8"></polygon><polygon points="114.96 99.74 101.46 107.53 75.32 159.94 75.32 179.22 114.96 99.74" style="fill:#ba69c8"></polygon><polygon points="140.77 84.84 134.39 88.52 75.32 206.96 75.32 216.06 140.77 84.84" style="fill:#ba69c8"></polygon><polygon points="197.18 145.53 197.18 164.8 188.19 182.82 174.7 190.61 197.18 145.53" style="fill:#ba69c8"></polygon><polygon points="197.18 52.27 197.18 56.73 112.21 226.69 105.82 230.38 193.94 54.14 197.18 52.27" style="fill:#ba69c8"></polygon><polygon points="177.8 63.46 89.99 239.52 75.32 247.99 75.32 236.17 154.85 76.71 177.8 63.46" style="fill:#ba69c8"></polygon><polygon points="197.18 83.9 197.18 116.68 154.49 202.28 131.53 215.53 197.18 83.9" style="fill:#ba69c8"></polygon></g></g></g><g id="freepik--Table--inject-147"><g id="freepik--table--inject-147"><g id="freepik--table--inject-147"><g id="freepik--Drawers--inject-147"><polygon points="177.98 380.6 168.08 374.88 177.98 372.02 177.98 380.6" style="fill:#e0e0e0"></polygon><polygon points="177.98 380.6 168.08 374.88 177.98 372.02 177.98 380.6" style="opacity:0.1"></polygon><polygon points="128.38 400.66 128.38 409.77 85.6 385.38 85.6 376.26 128.38 400.66" style="fill:#e0e0e0"></polygon><polygon points="128.38 400.66 128.38 409.77 85.6 385.38 85.6 376.26 128.38 400.66" style="opacity:0.1"></polygon><polygon points="80.65 277.37 123.44 301.77 123.44 403.52 80.65 379.12 80.65 277.37" style="fill:#e0e0e0"></polygon><polygon points="123.44 301.77 187.88 264.55 187.88 366.3 123.44 403.52 123.44 301.77" style="fill:#ebebeb"></polygon><polygon points="187.88 264.55 145.1 240.16 80.65 277.37 123.44 301.77 187.88 264.55" style="fill:#f5f5f5"></polygon><polygon points="128.38 304.63 182.94 273.13 182.94 293.98 128.38 325.48 128.38 304.63" style="fill:#fafafa"></polygon><polygon points="128.38 354.92 182.94 323.43 182.94 363.45 128.38 394.94 128.38 354.92" style="fill:#010101;opacity:0.1"></polygon><polygon points="128.38 409.77 133.34 406.92 133.34 397.8 128.38 400.66 128.38 409.77" style="fill:#ebebeb"></polygon><polygon points="177.98 380.6 182.93 377.74 182.93 369.16 177.98 372.02 177.98 380.6" style="fill:#ebebeb"></polygon><path d="M145.29,298.48c0,.79,2.36.06,5.28-1.62l9.25-5.34c2.91-1.68,5.27-3.69,5.28-4.48v-1.43l-19.81,11.44Z" style="fill:#e0e0e0"></path><polygon points="128.38 329.82 182.94 298.32 182.94 319.17 128.38 350.67 128.38 329.82" style="fill:#fafafa"></polygon><path d="M145.29,323.67c0,.79,2.36.06,5.28-1.62l9.25-5.34c2.91-1.68,5.27-3.68,5.28-4.47v-1.43l-19.81,11.43Z" style="fill:#e0e0e0"></path><polygon points="182.94 363.45 148.51 343.3 128.38 354.92 128.38 394.94 182.94 363.45" style="opacity:0.1"></polygon></g><g id="freepik--shelf--inject-147"><g id="freepik--shelf--inject-147"><polygon points="78.34 276.42 119.64 300 258.44 219.88 217.13 196.3 78.34 276.42" style="fill:#BA68C8"></polygon><polygon points="78.34 276.42 119.64 300 258.44 219.88 217.13 196.3 78.34 276.42" style="fill:#fff;opacity:0.85"></polygon><polygon points="78.34 276.42 78.34 280.59 119.64 304.18 119.64 300 78.34 276.42" style="fill:#BA68C8"></polygon><polygon points="78.34 276.42 78.34 280.59 119.64 304.18 119.64 300 78.34 276.42" style="fill:#fff;opacity:0.5"></polygon><polygon points="78.34 276.42 78.34 280.59 119.64 304.18 119.64 300 78.34 276.42" style="opacity:0.05"></polygon><polygon points="258.44 224.05 119.64 304.18 119.64 300 258.44 219.88 258.44 224.05" style="fill:#BA68C8"></polygon><polygon points="258.44 224.05 119.64 304.18 119.64 300 258.44 219.88 258.44 224.05" style="fill:#fff;opacity:0.65"></polygon></g></g></g><g id="freepik--hair-comb--inject-147"><path d="M169.4,253.93c-.38.22.48,1.08,1.92,1.91l4.05,2.34c1.44.83,2.3,1.68,1.93,1.9s-1.86-.27-3.3-1.1L170,256.64c-1.44-.83-2.92-1.33-3.3-1.11s.47,1.08,1.91,1.91l4.05,2.33c1.44.84,2.3,1.69,1.92,1.9s-1.86-.28-3.31-1.11l-4-2.32c-1.44-.84-2.92-1.33-3.3-1.11s.47,1.07,1.91,1.9l4,2.33c1.44.83,2.3,1.68,1.92,1.9s-1.85-.27-3.29-1.1l-4-2.33c-1.44-.83-2.92-1.32-3.3-1.1s.47,1.07,1.92,1.9l4,2.33c1.44.83,2.3,1.68,1.92,1.9s-1.85-.27-3.29-1.11l-4-2.33c-1.44-.83-2.92-1.33-3.3-1.1s.47,1.08,1.92,1.91l4,2.32c1.44.84,2.3,1.69,1.93,1.91s-1.86-.28-3.3-1.11l-4-2.33c-1.44-.84-2.92-1.33-3.3-1.11s.48,1.07,1.92,1.91l4,2.33c1.44.83,2.31,1.68,1.93,1.9s-1.86-.28-3.3-1.12l-4-2.32c-1.44-.83-2.92-1.33-3.3-1.1s.47,1.07,1.91,1.91l4,2.33c1.44.83,2.3,1.68,1.92,1.9s-1.86-.28-3.3-1.12l-4-2.32c-1.44-.83-2.92-1.33-3.3-1.11s.47,1.08,1.92,1.91l4,2.32c1.45.83,2.31,1.69,1.93,1.91s-1.86-.28-3.3-1.11l-4-2.32c-1.44-.83-2.92-1.33-3.3-1.11s.47,1.08,1.92,1.91l4,2.32c1.44.83,2.3,1.68,1.92,1.9s-1.86-.28-3.3-1.11l-4-2.32c-1.45-.83-2.93-1.32-3.31-1.1s.48,1.07,1.92,1.91l4,2.32c1.44.83,2.3,1.68,1.92,1.9s-1.85-.29-3.3-1.12l-7-4.05c-1.44-.84-1.44-2.19,0-3l23.78-13.73a5.8,5.8,0,0,1,5.23,0l7,4.05c1.44.84,2.3,1.69,1.91,1.92s-1.87-.27-3.31-1.1l-4-2.34C171.27,254.21,169.79,253.71,169.4,253.93Z" style="opacity:0.2"></path><path d="M169.4,252.86c-.38.23.48,1.08,1.92,1.91l4.05,2.34c1.44.83,2.3,1.68,1.93,1.91s-1.86-.28-3.3-1.11L170,255.57c-1.44-.83-2.92-1.33-3.3-1.11s.47,1.08,1.91,1.91l4.05,2.34c1.44.83,2.3,1.68,1.92,1.9s-1.86-.29-3.31-1.12l-4-2.32c-1.44-.83-2.92-1.33-3.3-1.11s.47,1.07,1.91,1.91l4,2.32c1.44.83,2.3,1.69,1.92,1.91s-1.85-.28-3.29-1.11l-4-2.32c-1.44-.84-2.92-1.33-3.3-1.11s.47,1.07,1.92,1.9l4,2.33c1.44.83,2.3,1.68,1.92,1.9s-1.85-.27-3.29-1.11l-4-2.33c-1.44-.83-2.92-1.33-3.3-1.1s.47,1.08,1.92,1.91l4,2.33c1.44.83,2.3,1.68,1.93,1.9s-1.86-.27-3.3-1.11l-4-2.33c-1.44-.83-2.92-1.33-3.3-1.11s.48,1.07,1.92,1.91l4,2.33c1.44.83,2.31,1.69,1.93,1.9s-1.86-.28-3.3-1.11l-4-2.32c-1.44-.84-2.92-1.33-3.3-1.11s.47,1.07,1.91,1.91l4,2.33c1.44.83,2.3,1.68,1.92,1.9s-1.86-.28-3.3-1.12l-4-2.32c-1.44-.83-2.92-1.33-3.3-1.1s.47,1.07,1.92,1.9l4,2.32c1.45.84,2.31,1.69,1.93,1.91s-1.86-.27-3.3-1.11l-4-2.32c-1.44-.83-2.92-1.33-3.3-1.11s.47,1.08,1.92,1.91l4,2.32c1.44.83,2.3,1.68,1.92,1.9s-1.86-.28-3.3-1.11l-4-2.31c-1.45-.83-2.93-1.33-3.31-1.11s.48,1.08,1.92,1.91l4,2.32c1.44.83,2.3,1.68,1.92,1.9s-1.85-.28-3.3-1.12l-7-4.05c-1.44-.83-1.44-2.18,0-3l23.78-13.73a5.8,5.8,0,0,1,5.23,0l7,4.06c1.44.83,2.3,1.69,1.91,1.91s-1.87-.27-3.31-1.1l-4-2.34C171.27,253.14,169.79,252.64,169.4,252.86Z" style="fill:#455a64"></path></g><g id="freepik--Scissors--inject-147"><path d="M119.3,294.67a6.28,6.28,0,0,1-1.63-.23c-1.6-.45-2.09-1.29-2.23-1.91a2.9,2.9,0,0,1,1.08-2.64c.25-.21.54-.43.84-.66a6.67,6.67,0,0,0,2-1.9l1.08-2.78-.81-.48.17-.41-.85.19-.38-.52c-.85.41-2.93,1.42-5.73,2.82l-1.66.84a15.19,15.19,0,0,1-3.74,1.57,6.32,6.32,0,0,1-1.48.19,3,3,0,0,1-2.32-.85,2.31,2.31,0,0,1-.52-1.89c.29-2.62,5.4-4.91,8.06-5.15.87-.08,1.69-.11,2.58-.11h1.93c.24,0,.45,0,.65,0,1-.09,4.13-.67,4.16-.67l.34-.07.21.28.78-.15c1-.73,8.93-6.33,10.79-7.61,1.17-.8,3.25-2.07,3.88-2.07h.34l.21.32.16.3-.21.35a15.79,15.79,0,0,1-3,3.42c-.67.53-2.59,2.16-4.5,3.8l14.43-2.8-.64,1.07c-.17.3-1.11,1.16-6,2.6-2.93.86-8.28,2.1-12.31,3l-.65.57c0,.72-.19,2.9-.29,4.05a4.49,4.49,0,0,0,.21,1.37,4,4,0,0,1-.24,3.39A5.65,5.65,0,0,1,119.3,294.67Zm1-4.16a2.61,2.61,0,0,0-1.89.74.64.64,0,0,0-.2.56.88.88,0,0,0,.63.47,2.2,2.2,0,0,0,.64.08,2.57,2.57,0,0,0,1.89-.74.65.65,0,0,0,.2-.55.86.86,0,0,0-.63-.47A2.2,2.2,0,0,0,120.32,290.51Zm-7.4-7.67a10.34,10.34,0,0,0-3.11.54c-2.77.92-3.64,2.05-3.91,2.64,0,.08-.11.27-.05.37a.57.57,0,0,0,.46.16,1.33,1.33,0,0,0,.28,0,4.51,4.51,0,0,0,1.43-.7,18.16,18.16,0,0,1,1.75-1,34.74,34.74,0,0,1,4.47-1.81h.05A5,5,0,0,0,112.92,282.84Z" style="opacity:0.2"></path><path d="M120.56,280.64l22.17-4.91.05.6s-.48.81-5.66,2.34-18,4.24-18,4.24l-.53-.71Z" style="fill:#263238"></path><path d="M136.48,270.81a15.08,15.08,0,0,1-2.86,3.29c-1.55,1.22-9.85,8.41-9.85,8.41L121.09,284l-.8-.46,1.21-2.81s9.37-6.64,11.39-8S136.74,270.43,136.48,270.81Z" style="fill:#37474f"></path><polygon points="120.29 282.88 121.09 283.34 120.89 283.87 120.29 283.53 120.29 282.88" style="fill:#263238"></polygon><polygon points="136.5 270.09 136.5 270.76 135.83 271.74 135.83 270.71 136.5 270.09" style="fill:#37474f"></polygon><path d="M123.52,291.29c1-1.61-.17-3.13,0-4.51s.3-4.27.3-4.27L121.09,284l-1.25,3.24c-.37.95-2,2-3,2.79s-1.81,2.8.94,3.57A4.92,4.92,0,0,0,123.52,291.29Zm-4.81,1.22c-1.06-.3-1.37-1.17-.71-1.93a3.23,3.23,0,0,1,3.11-.83c1.06.3,1.37,1.17.71,1.94A3.26,3.26,0,0,1,118.71,292.51Z" style="fill:#BA68C8"></path><path d="M123.52,291.29c1-1.61-.17-3.13,0-4.51s.3-4.27.3-4.27L121.09,284l-1.25,3.24c-.37.95-2,2-3,2.79s-1.81,2.8.94,3.57A4.92,4.92,0,0,0,123.52,291.29Zm-4.81,1.22c-1.06-.3-1.37-1.17-.71-1.93a3.23,3.23,0,0,1,3.11-.83c1.06.3,1.37,1.17.71,1.94A3.26,3.26,0,0,1,118.71,292.51Z" style="opacity:0.2"></path><path d="M123.63,281.51a1.16,1.16,0,0,1-1.1.21c-.41-.12-.57-.4-.37-.64a1.21,1.21,0,0,1,1.11-.21C123.67,281,123.83,281.28,123.63,281.51Z" style="fill:#263238"></path><path d="M120.55,280.32s-3.17.59-4.21.69-2.55-.13-5.16.11-7.31,2.47-7.55,4.65,2,2.33,3.63,1.94,2.51-1,5.28-2.37c3.7-1.85,6.15-3,6.15-3l2.07-1.72Zm-6.13,2.93A33.67,33.67,0,0,0,110,285c-1.76.88-2.19,1.47-3.29,1.73-.9.21-1.79-.29-1.33-1.28s1.8-2.14,4.25-2.94,4.44-.65,5.33-.18C115.32,282.54,115.48,282.9,114.42,283.25Z" style="fill:#BA68C8"></path><path d="M120.55,280.32s-3.17.59-4.21.69-2.55-.13-5.16.11-7.31,2.47-7.55,4.65,2,2.33,3.63,1.94,2.51-1,5.28-2.37c3.7-1.85,6.15-3,6.15-3l2.07-1.72Zm-6.13,2.93A33.67,33.67,0,0,0,110,285c-1.76.88-2.19,1.47-3.29,1.73-.9.21-1.79-.29-1.33-1.28s1.8-2.14,4.25-2.94,4.44-.65,5.33-.18C115.32,282.54,115.48,282.9,114.42,283.25Z" style="opacity:0.2"></path><polygon points="119.14 282.91 119.14 282.26 118.69 281.67 118.69 282.32 119.14 282.91" style="fill:#263238"></polygon><path d="M120.56,280l22.22-4.31s-.48.81-5.66,2.34-18,4.24-18,4.24l-.53-.71Z" style="fill:#37474f"></path><path d="M136.48,270.16a15.33,15.33,0,0,1-2.86,3.29c-1.55,1.22-9.85,8.41-9.85,8.41l-2.68,1.48-.8-.46,1.21-2.81s9.37-6.64,11.39-8S136.74,269.77,136.48,270.16Z" style="fill:#455a64"></path><path d="M123.52,290.63c1-1.6-.17-3.12,0-4.5s.3-4.27.3-4.27l-2.68,1.48-1.25,3.23c-.37,1-2,2-3,2.79s-1.81,2.8.94,3.57A4.91,4.91,0,0,0,123.52,290.63Zm-4.81,1.23c-1.06-.3-1.37-1.17-.71-1.94a3.25,3.25,0,0,1,3.11-.82c1.06.3,1.37,1.17.71,1.93A3.24,3.24,0,0,1,118.71,291.86Z" style="fill:#BA68C8"></path><path d="M123.63,280.86a1.19,1.19,0,0,1-1.1.21c-.41-.12-.57-.41-.37-.64a1.18,1.18,0,0,1,1.11-.21C123.67,280.34,123.83,280.62,123.63,280.86Z" style="fill:#263238"></path><path d="M120.55,279.67s-3.17.59-4.21.68-2.55-.12-5.16.12-7.31,2.47-7.55,4.64,2,2.34,3.63,1.95,2.51-1,5.28-2.37c3.7-1.85,6.15-3,6.15-3l2.07-1.72Zm-6.13,2.93a33.67,33.67,0,0,0-4.41,1.78c-1.76.87-2.19,1.46-3.29,1.73-.9.21-1.79-.3-1.33-1.28s1.8-2.14,4.25-2.94,4.44-.66,5.33-.18C115.32,281.89,115.48,282.25,114.42,282.6Z" style="fill:#BA68C8"></path></g><g id="freepik--hair-comb--inject-147"><path d="M153.29,242.76a3.62,3.62,0,0,0-3.27,0l-14.17,8.18-16.21,9.33.32.21a9.22,9.22,0,0,0,3-1.18L133,254.07a3.88,3.88,0,0,1,3.71.09l2.79,1.63c.91.52,1.83.83,2.07.69s-.3-.66-1.21-1.19l-2.51-1.45c-.91-.52-1.44-1.06-1.2-1.19s1.16.17,2.07.69l2.51,1.45c.91.52,1.83.83,2.07.69s-.31-.66-1.21-1.19l-2.52-1.45c-.9-.52-1.44-1.06-1.2-1.19a3.58,3.58,0,0,1,2.07.69l2.52,1.45c.9.52,1.83.84,2.06.7s-.3-.68-1.2-1.2l-2.52-1.45c-.9-.52-1.44-1.06-1.2-1.19a3.58,3.58,0,0,1,2.07.69l2.52,1.45c.9.52,1.83.84,2.06.7s-.3-.67-1.2-1.19l-2.52-1.46c-.9-.52-1.44-1.06-1.2-1.2a3.7,3.7,0,0,1,2.07.7l2.52,1.45c.9.52,1.82.84,2.06.7s-.3-.67-1.2-1.19l-2.53-1.46c-.9-.52-1.44-1.06-1.2-1.2a3.72,3.72,0,0,1,2.07.7l2.52,1.46c.91.52,1.83.83,2.07.69s-.31-.67-1.21-1.19l-2.52-1.45c-.91-.53-1.44-1.06-1.21-1.2a3.58,3.58,0,0,1,2.07.69l2.53,1.46a3.58,3.58,0,0,0,2.07.69c.23-.13-.31-.67-1.21-1.19l-2.53-1.45c-.9-.53-1.44-1.06-1.2-1.2a3.58,3.58,0,0,1,2.07.69l2.53,1.46c.9.52,1.83.83,2.06.69s-.3-.67-1.2-1.19L150,246.84c-.9-.52-1.44-1.05-1.2-1.19a3.58,3.58,0,0,1,2.07.69l2.52,1.46a3.72,3.72,0,0,0,2.07.7c.24-.14-.29-.67-1.2-1.19l-2.53-1.47c-.9-.52-1.44-1.05-1.2-1.19s1.16.17,2.07.69l2.53,1.47c.91.52,1.83.83,2.07.69s-.31-.67-1.21-1.19l-2.53-1.47c-.91-.52-1.44-1.05-1.2-1.19s1.16.17,2.06.69l2.54,1.47a3.58,3.58,0,0,0,2.07.69c.25-.14-.29-.68-1.19-1.2Z" style="opacity:0.2"></path><path d="M153.29,241.75a3.62,3.62,0,0,0-3.27,0l-14.17,8.18-16.21,9.33.32.21a9.22,9.22,0,0,0,3-1.18L133,253.06a3.88,3.88,0,0,1,3.71.09l2.79,1.63c.91.52,1.83.83,2.07.69s-.3-.66-1.21-1.18l-2.51-1.46c-.91-.52-1.44-1.05-1.2-1.19s1.16.17,2.07.69l2.51,1.45c.91.52,1.83.83,2.07.69s-.31-.66-1.21-1.19l-2.52-1.45c-.9-.52-1.44-1.06-1.2-1.19a3.58,3.58,0,0,1,2.07.69l2.52,1.45c.9.53,1.83.84,2.06.7s-.3-.67-1.2-1.2l-2.52-1.45c-.9-.52-1.44-1.06-1.2-1.19a3.58,3.58,0,0,1,2.07.69l2.52,1.45c.9.53,1.83.84,2.06.7s-.3-.67-1.2-1.19l-2.52-1.46c-.9-.52-1.44-1.06-1.2-1.19a3.58,3.58,0,0,1,2.07.69l2.52,1.45c.9.52,1.82.84,2.06.7s-.3-.67-1.2-1.19l-2.53-1.46c-.9-.52-1.44-1.06-1.2-1.2a3.72,3.72,0,0,1,2.07.7l2.52,1.46a3.72,3.72,0,0,0,2.07.7c.23-.14-.31-.68-1.21-1.2l-2.52-1.45c-.91-.52-1.44-1.06-1.21-1.2a3.58,3.58,0,0,1,2.07.69l2.53,1.46a3.7,3.7,0,0,0,2.07.7c.23-.14-.31-.68-1.21-1.2l-2.53-1.45c-.9-.52-1.44-1.06-1.2-1.2s1.17.18,2.07.7l2.53,1.45c.9.52,1.83.83,2.06.69s-.3-.67-1.2-1.19L150,245.84c-.9-.53-1.44-1.06-1.2-1.2a3.54,3.54,0,0,1,2.07.7l2.52,1.45a3.72,3.72,0,0,0,2.07.7c.24-.14-.29-.67-1.2-1.19l-2.53-1.46c-.9-.53-1.44-1.06-1.2-1.2s1.16.17,2.07.7l2.53,1.46c.91.52,1.83.83,2.07.69s-.31-.67-1.21-1.19l-2.53-1.46c-.91-.53-1.44-1.06-1.2-1.2s1.16.17,2.06.69l2.54,1.47a3.58,3.58,0,0,0,2.07.69c.25-.14-.29-.68-1.19-1.2Z" style="fill:#455a64"></path></g><g id="freepik--hair-curling-iron--inject-147"><path d="M237.21,218.39l9.25-5.35-1-.57-8.77,5.07a.92.92,0,0,0-.22-.18.59.59,0,0,0-.48-.09h0l-1.61.76a3.28,3.28,0,0,0-.52-.4,1.39,1.39,0,0,0-1.06-.2h0l-1.06.23a1.92,1.92,0,0,0-1.88-.14l-.71.41a1.56,1.56,0,0,0-.75,1l-16.17,9.33a1.63,1.63,0,0,0-1.17.12l-.72.41a1.74,1.74,0,0,0-.83,1.31l-18.58,12.24h0l0,0h0a1,1,0,0,0-.37.88,3.16,3.16,0,0,0,1.42,2.47,1,1,0,0,0,1,.12h0l19.91-10a1.7,1.7,0,0,0,1.54-.08l.71-.41a1.55,1.55,0,0,0,.66-.86L232,225a1.55,1.55,0,0,0,1.14-.18l.71-.41a2,2,0,0,0,.82-1.83c0-.07,0-.15,0-.23l.62-.69h0a1.42,1.42,0,0,0,.33-1,3.42,3.42,0,0,0,0-.44l1.52-1.08h0a.61.61,0,0,0,.15-.44A1.51,1.51,0,0,0,237.21,218.39Z" style="opacity:0.2"></path><path d="M235.94,216.75a.5.5,0,0,1-.25-.93l8.63-5a1.41,1.41,0,0,1,2.11,1.21v1l-1-.57V212a.41.41,0,0,0-.2-.35.42.42,0,0,0-.4,0l-8.64,5A.45.45,0,0,1,235.94,216.75Z"></path><path d="M237.27,216.37a1.76,1.76,0,0,0-.8-1.38.63.63,0,0,0-.48-.09h0l-2.7,1.27,1.38,2.38,2.45-1.73h0A.66.66,0,0,0,237.27,216.37Z" style="fill:#455a64"></path><path d="M235.64,218.34a4,4,0,0,0-1.78-3.09,1.39,1.39,0,0,0-1.06-.2h0l-1.86.4,3.08,5.3,1.29-1.42h0A1.43,1.43,0,0,0,235.64,218.34Z" style="fill:#263238"></path><path d="M234.42,219.53a4.86,4.86,0,0,0-2.2-3.81C231,215,230,215.58,230,217a4.86,4.86,0,0,0,2.21,3.81C233.43,221.5,234.42,220.93,234.42,219.53Z" style="fill:#37474f"></path><path d="M234.7,220.26a6.29,6.29,0,0,0-2.84-4.93,2,2,0,0,0-2-.2l-.77.44a2,2,0,0,0-.83,1.83,6.31,6.31,0,0,0,2.85,4.94,2,2,0,0,0,2,.19l.77-.44A2,2,0,0,0,234.7,220.26Z" style="fill:#475c66"></path><path d="M234,220.69a6.31,6.31,0,0,0-2.85-4.93c-1.57-.91-2.85-.17-2.85,1.64a6.31,6.31,0,0,0,2.85,4.94C232.68,223.24,234,222.51,234,220.69Z" style="fill:#37474f"></path><path d="M233.4,220.68a5.61,5.61,0,0,0-2.52-4.38,1.76,1.76,0,0,0-1.77-.17l-17.3,10a1.77,1.77,0,0,0-.74,1.63,5.59,5.59,0,0,0,2.53,4.38,1.76,1.76,0,0,0,1.77.17l17.3-10A1.76,1.76,0,0,0,233.4,220.68Z" style="fill:#263238"></path><path d="M215.9,231.12a6.28,6.28,0,0,0-2.85-4.93,2,2,0,0,0-2-.2l-.77.44a2,2,0,0,0-.83,1.83,6.27,6.27,0,0,0,2.84,4.93,2,2,0,0,0,2,.2l.77-.44A2,2,0,0,0,215.9,231.12Z" style="fill:#475c66"></path><path d="M215.15,231.55a6.27,6.27,0,0,0-2.85-4.93c-1.57-.91-2.84-.17-2.84,1.64a6.27,6.27,0,0,0,2.84,4.93C213.88,234.1,215.15,233.36,215.15,231.55Z" style="fill:#37474f"></path><path d="M214.7,231.29a5.32,5.32,0,0,0-2.4-4.15,1.65,1.65,0,0,0-1.72-.14h0l-19.7,13,2,3.48,21-10.59h0A1.63,1.63,0,0,0,214.7,231.29Z" style="fill:#fafafa"></path><path d="M193.36,242.51a3.12,3.12,0,0,0-1.43-2.46c-.78-.46-1.42-.09-1.42.82a3.17,3.17,0,0,0,1.42,2.47C192.72,243.79,193.36,243.42,193.36,242.51Z" style="fill:#e0e0e0"></path><path d="M219.56,225.59a2.14,2.14,0,0,1-1.94,0,.66.66,0,0,1-.4-.55v-.55a.66.66,0,0,1,.4-.55,2.14,2.14,0,0,1,1.94,0,.66.66,0,0,1,.4.55V225A.66.66,0,0,1,219.56,225.59Z" style="fill:#bb6ac9"></path><path d="M219.56,225.59a2.14,2.14,0,0,1-1.94,0,.66.66,0,0,1-.4-.55v-.55a.66.66,0,0,1,.4-.55,2.14,2.14,0,0,1,1.94,0,.66.66,0,0,1,.4.55V225A.66.66,0,0,1,219.56,225.59Z" style="fill:#010101;opacity:0.2"></path><ellipse cx="218.59" cy="224.5" rx="1.38" ry="0.79" style="fill:#bb6ac9"></ellipse><path d="M224.09,223a2.14,2.14,0,0,1-1.94,0,.66.66,0,0,1-.4-.56v-.54a.68.68,0,0,1,.4-.56,2.14,2.14,0,0,1,1.94,0,.68.68,0,0,1,.4.56v.54A.67.67,0,0,1,224.09,223Z" style="fill:#bb6ac9"></path><path d="M224.09,223a2.14,2.14,0,0,1-1.94,0,.66.66,0,0,1-.4-.56v-.54a.68.68,0,0,1,.4-.56,2.14,2.14,0,0,1,1.94,0,.68.68,0,0,1,.4.56v.54A.67.67,0,0,1,224.09,223Z" style="fill:#010101;opacity:0.2"></path><path d="M224.09,222.44a2.14,2.14,0,0,1-1.94,0,.6.6,0,0,1,0-1.13,2.14,2.14,0,0,1,1.94,0A.6.6,0,0,1,224.09,222.44Z" style="fill:#bb6ac9"></path><path d="M228.64,220.35a2.16,2.16,0,0,1-1.95,0,.68.68,0,0,1-.4-.55v-.55a.68.68,0,0,1,.4-.55,2.16,2.16,0,0,1,1.95,0,.66.66,0,0,1,.4.55v.55A.66.66,0,0,1,228.64,220.35Z" style="fill:#bb6ac9"></path><path d="M228.64,220.35a2.16,2.16,0,0,1-1.95,0,.68.68,0,0,1-.4-.55v-.55a.68.68,0,0,1,.4-.55,2.16,2.16,0,0,1,1.95,0,.66.66,0,0,1,.4.55v.55A.66.66,0,0,1,228.64,220.35Z" style="fill:#010101;opacity:0.2"></path><ellipse cx="227.67" cy="219.26" rx="1.38" ry="0.79" style="fill:#bb6ac9"></ellipse></g><g id="freepik--hair-iron--inject-147"><path d="M220.29,209.83a1.73,1.73,0,0,0-1.06-1.93l-1.9-1.09a6,6,0,0,0-5.43,0l-18,10.39h0l-1.74,1-.45.25h0l-2.1,1.22h0c-.84.49-19.56,11.57-20.66,12.21a2,2,0,0,0-.92,1.7,1.63,1.63,0,0,0-.68,1.51,3.9,3.9,0,0,0,.07.66l-2.18,1.44h0a.85.85,0,0,0-.32.75,2.62,2.62,0,0,0,.56,1.48l-2.38,1.38a4.1,4.1,0,0,1-4.07,0l-9.51-5.5-1,.58,10,5.78a5.07,5.07,0,0,0,5.07,0l2.65-1.53,0,0a.77.77,0,0,0,.66,0h0l2.46-1.23c.09.06.18.14.27.19a1.63,1.63,0,0,0,1.64.16,2,2,0,0,0,1.95.05c1.22-.71,20.44-12.09,20.68-12.23h0l3.17-1.84h0l21.95-12.67a2.52,2.52,0,0,0,1.27-2.2h0A1.14,1.14,0,0,0,220.29,209.83Z" style="opacity:0.2"></path><path d="M220.33,208.31h0a2.54,2.54,0,0,1-1.27,2.21l-21.95,12.67v-1.47Z" style="fill:#e0e0e0"></path><path d="M219.23,209.67c1.5-.86,1.5-2.27,0-3.13l-1.9-1.1a6,6,0,0,0-5.43,0l-20.21,11.67,7.33,4.23Z" style="fill:#37474f"></path><path d="M219.23,209c1.5-.86,1.5-2.27,0-3.13l-1.9-1.09a6,6,0,0,0-5.43,0l-20.21,11.66,7.33,4.23Z" style="fill:#f5f5f5"></path><path d="M199.06,220.61a6.72,6.72,0,0,0-3-5.27,2.12,2.12,0,0,0-2.14-.21l-4.28,2.48a2.11,2.11,0,0,0-.89,1.95,6.74,6.74,0,0,0,3,5.28,2.12,2.12,0,0,0,2.14.21l4.28-2.48A2.14,2.14,0,0,0,199.06,220.61Z" style="fill:#37474f"></path><path d="M194.82,223.08a6.74,6.74,0,0,0-3-5.28,2.1,2.1,0,0,0-2.13-.21l-20.75,12.27a2.11,2.11,0,0,0-.89,2,6.72,6.72,0,0,0,3,5.27,2.1,2.1,0,0,0,2.14.21L193.93,225A2.11,2.11,0,0,0,194.82,223.08Z" style="fill:#f5f5f5"></path><path d="M174.09,235.33a6.73,6.73,0,0,0-3.05-5.27c-1.68-1-3-.19-3,1.76a6.72,6.72,0,0,0,3,5.27C172.72,238.06,174.09,237.28,174.09,235.33Z" style="fill:#e0e0e0"></path><path d="M173.09,235.07a5.17,5.17,0,0,0-2.32-4,1.64,1.64,0,0,0-1.63-.16l-1.12.65a1.62,1.62,0,0,0-.68,1.49,5.14,5.14,0,0,0,2.32,4,1.62,1.62,0,0,0,1.63.16l1.13-.65A1.62,1.62,0,0,0,173.09,235.07Z" style="fill:#475c66"></path><path d="M172,235.71a5.14,5.14,0,0,0-2.33-4c-1.28-.74-2.32-.14-2.32,1.34a5.14,5.14,0,0,0,2.32,4C171,237.79,172,237.19,172,235.71Z" style="fill:#37474f"></path><path d="M191.77,217.8a2.61,2.61,0,0,0-.54-.25l-15.88,9.17c-.75.43-.79,1.11-.08,1.52a2.94,2.94,0,0,0,2.63-.05l15.47-8.93A5.63,5.63,0,0,0,191.77,217.8Z" style="fill:#bb6ac9"></path><path d="M186.49,221.72l.25.11a2.08,2.08,0,0,0,1.59-.11.57.57,0,0,0,0-1.07,2.05,2.05,0,0,0-1.84,0A.57.57,0,0,0,186.49,221.72Z" style="fill:#475c66"></path><path d="M182.87,223.81l.25.11a2.08,2.08,0,0,0,1.59-.11.57.57,0,0,0,0-1.07,2.05,2.05,0,0,0-1.84,0A.57.57,0,0,0,182.87,223.81Z" style="fill:#475c66"></path><path d="M179.25,225.9l.25.11a2.08,2.08,0,0,0,1.59-.11.57.57,0,0,0,0-1.07,2.05,2.05,0,0,0-1.84,0A.57.57,0,0,0,179.25,225.9Z" style="fill:#475c66"></path><path d="M170.32,236.39h0l-3.39,1.7-1.7-3,3.14-2.08h0a.92.92,0,0,1,1,.06,3,3,0,0,1,1.37,2.37A1,1,0,0,1,170.32,236.39Z" style="fill:#475c66"></path><path d="M166.12,235.19c-.67-.38-1.21-.07-1.21.7a2.67,2.67,0,0,0,1.21,2.09c.66.38,1.2.07,1.2-.7A2.68,2.68,0,0,0,166.12,235.19Z" style="fill:#37474f"></path><path d="M161.05,239.23a5.08,5.08,0,0,1-2.53-.68l-6.64-3.83a1.68,1.68,0,0,0-1.68,0,1.74,1.74,0,0,0-.57.54l-1.26.73a2.72,2.72,0,0,1,1.34-2.14,2.66,2.66,0,0,1,2.67,0l6.64,3.84a4.1,4.1,0,0,0,4.07,0l2.65-1.54a.5.5,0,0,1,.5.87l-2.65,1.53A5.12,5.12,0,0,1,161.05,239.23Z"></path></g><g id="freepik--bottle--inject-147"><path id="freepik--shadow--inject-147" d="M105.2,279.19l11.07-6.39c1.32-.76,1.32-2,0-2.76l-7.58-4.38a5.3,5.3,0,0,0-4.78,0l-11.07,6.39c-1.32.76-1.32,2,0,2.76l7.58,4.38A5.3,5.3,0,0,0,105.2,279.19Z" style="opacity:0.2"></path><g id="freepik--Soap--inject-147"><path d="M99.66,240.54l3.47-2a3,3,0,0,1,3-.3c.77.44,5.85,3.35,6.62,3.82a3,3,0,0,1,1.22,2.74v25a2.36,2.36,0,0,1-1.07,1.85l-9.87,5.69a.76.76,0,0,1-.76.07l-6.58-3.79a.75.75,0,0,1-.32-.69v-25A9.43,9.43,0,0,1,99.66,240.54Z" style="fill:#ba69c8"></path><path d="M99.66,240.54l3.47-2a3,3,0,0,1,3-.3c.77.44,5.85,3.35,6.62,3.82a3,3,0,0,1,1.22,2.74v11.24L95.82,245.56A9.39,9.39,0,0,1,99.66,240.54Z" style="fill:#fff;opacity:0.4"></path><path d="M114,269.81a2.36,2.36,0,0,1-1.07,1.85l-9.87,5.69a.76.76,0,0,1-.76.07l-6.58-3.79a.75.75,0,0,1-.32-.69v-25a7.52,7.52,0,0,1,.43-2.37L114,256.05Z" style="fill:#fff;opacity:0.25"></path><path d="M103.05,277.35a.76.76,0,0,1-.76.07.75.75,0,0,1-.31-.69v-25a9.43,9.43,0,0,1,4.27-7.39l3.47-2a3,3,0,0,1,3-.27,3,3,0,0,1,1.22,2.74v25a2.36,2.36,0,0,1-1.07,1.85Z" style="fill:#ba69c8"></path><path d="M101.71,237.86v3.65a1.42,1.42,0,0,0,.83,1.16,4.45,4.45,0,0,0,4,0,1.4,1.4,0,0,0,.83-1.16v-3.65Z" style="fill:#37474f"></path><path d="M102.54,239a4.39,4.39,0,0,0,4,0,1.22,1.22,0,0,0,0-2.31,4.39,4.39,0,0,0-4,0A1.22,1.22,0,0,0,102.54,239Z" style="fill:#455a64"></path><path d="M103.71,232v5.88a.42.42,0,0,0,.25.35,1.31,1.31,0,0,0,1.19,0,.42.42,0,0,0,.25-.35V232Z" style="fill:#37474f"></path><path d="M103.71,234.53h.14a15.25,15.25,0,0,1,1.55.2V232h-1.69Z" style="fill:#263238"></path><path d="M109.69,234.16l-.58-.42a3.51,3.51,0,0,1-1.46-2.16,1.6,1.6,0,0,0-1.12-1.05,4.94,4.94,0,0,0-3.36.11c-1.77.7-2.1,2-.86,2.75a3.65,3.65,0,0,0,1.54.42,10.54,10.54,0,0,1,3.7.83l.71.34A1.42,1.42,0,0,0,109.69,234.16Z" style="fill:#455a64"></path></g></g></g></g><g id="freepik--Plant--inject-147"><g id="freepik--Pot--inject-147"><g id="freepik--pot--inject-147"><g id="freepik--pot--inject-147"><path d="M84.5,414.87c7.52-7.76,11.94-39.37,4.6-45.53H51.75c-7.34,6.16-2.93,37.75,4.6,45.52.06.08.14.15.2.22l.26.25c.21.21.44.42.68.62l.18.14c.19.15.37.29.57.43a10.64,10.64,0,0,0,1,.63c6.2,3.62,16.23,3.62,22.42,0h0a10.76,10.76,0,0,0,1-.63c.18-.13.35-.27.52-.41l.23-.17c.23-.2.45-.39.65-.59l.3-.3Z" style="fill:#455a64"></path><path d="M55,366.86c-8.52,5-8.52,13,0,18s22.34,5,30.87,0,8.52-13.05,0-18S63.51,361.88,55,366.86Z" style="fill:#37474f"></path><path d="M59.09,369.25c-6.26,3.65-6.26,9.58,0,13.23s16.41,3.66,22.67,0,6.26-9.58,0-13.23S65.35,365.6,59.09,369.25Z" style="fill:#263238"></path><path d="M81.76,375.53c-6.26-3.65-16.41-3.65-22.67,0A10.53,10.53,0,0,0,55.34,379a10.51,10.51,0,0,0,3.75,3.47c6.26,3.66,16.41,3.66,22.67,0A10.51,10.51,0,0,0,85.51,379,10.53,10.53,0,0,0,81.76,375.53Z" style="fill:#fafafa"></path></g></g><g id="freepik--Plants--inject-147"><path d="M87.19,310.58,73,321.83l13.72-6.33a38,38,0,0,1-2.39,13,84.54,84.54,0,0,0-10.68,7.57l10.52-4.15s.72,6.93-2.16,17.5c-.76,2.77-3.87,8.06-5.84,12a43.81,43.81,0,0,1-3.05,5.27c-.06.11-.14.21-.21.32-2.41-1.37-4.9-2.71-7.5-4-1.69-3.55-3.89-12.33-4.69-19.52-3-27.53,17.79-43.31,34.52-48.6A49.81,49.81,0,0,0,87.19,310.58Z" style="fill:#ba69c8"></path><path d="M87.19,310.58,73,321.83l13.72-6.33a38,38,0,0,1-2.39,13,84.54,84.54,0,0,0-10.68,7.57l10.52-4.15s.72,6.93-2.16,17.5c-.76,2.77-3.87,8.06-5.84,12a43.81,43.81,0,0,1-3.05,5.27c-.06.11-.14.21-.21.32-2.41-1.37-4.9-2.71-7.5-4-1.69-3.55-3.89-12.33-4.69-19.52-3-27.53,17.79-43.31,34.52-48.6A49.81,49.81,0,0,0,87.19,310.58Z" style="fill:#fff;opacity:0.5"></path><path d="M75.33,311.73c-2.89,2.91-4.59,6.75-5.89,10.58a56.39,56.39,0,0,0-2.52,11.91,51.64,51.64,0,0,0,3,23.9h0a.39.39,0,0,1-.23.51.39.39,0,0,1-.51-.22h0a52.34,52.34,0,0,1-2.65-24.24,56.07,56.07,0,0,1,2.72-11.93C70.62,318.42,72.39,314.6,75.33,311.73Z" style="fill:#fafafa"></path><path d="M25.79,325l0,0a210.07,210.07,0,0,1,14.83,20.82L55,348.18,44.41,350l5.7,9L64.28,362l-11.06,1.8s3.07,10.79,11,15.29c4.37,2.49,6.5,2.87,7.82,1.62.91-.87,1.13-6.05,1.89-10.67s.83-12.13-3.53-21.2a28.35,28.35,0,0,0-4.54-6.66C55.38,330.5,35.58,324.87,25.79,325Z" style="fill:#ba69c8"></path><path d="M25.79,325l0,0a210.07,210.07,0,0,1,14.83,20.82L55,348.18,44.41,350l5.7,9L64.28,362l-11.06,1.8s3.07,10.79,11,15.29c4.37,2.49,6.5,2.87,7.82,1.62.91-.87,1.13-6.05,1.89-10.67s.83-12.13-3.53-21.2a28.35,28.35,0,0,0-4.54-6.66C55.38,330.5,35.58,324.87,25.79,325Z" style="fill:#fff;opacity:0.65"></path><path d="M40.85,329.73a58.56,58.56,0,0,1,20,13.82,39.69,39.69,0,0,1,6.86,10.18,37.54,37.54,0,0,1,3.13,11.83,0,0,0,0,1,0,0s0,0,0,0A47.73,47.73,0,0,0,67,354.07,44,44,0,0,0,60.4,344,60,60,0,0,0,40.82,329.8a0,0,0,1,1,0-.07Z" style="fill:#fafafa"></path><path d="M111.54,331h0a29.5,29.5,0,0,0-3.62.17,57.6,57.6,0,0,0-13.85,3.37c-1.66.61-3.32,1.31-4.95,2.09-.82.39-1.62.8-2.42,1.23a40.33,40.33,0,0,0-10.62,8A25.75,25.75,0,0,0,72.43,351c-.13.24-.27.48-.39.72h0c-.31.63-.59,1.25-.85,1.86a34.55,34.55,0,0,0-3.12,17.05c.15,4.13,1.55,8.85,2.35,9.63a2.18,2.18,0,0,0,.36.26c1.18.75,3,.32,6.55-1.64C84.35,375,87.1,365,87.1,365l-9.75-1.66,12.52-2.5L95,352.92l-9.36-1.7,12.72-2A187.88,187.88,0,0,1,111.52,331s0,0,0,0Z" style="fill:#ba69c8"></path><path d="M111.54,331h0a29.5,29.5,0,0,0-3.62.17,57.6,57.6,0,0,0-13.85,3.37c-1.66.61-3.32,1.31-4.95,2.09-.82.39-1.62.8-2.42,1.23a40.33,40.33,0,0,0-10.62,8A25.75,25.75,0,0,0,72.43,351c-.13.24-.27.48-.39.72h0c-.31.63-.59,1.25-.85,1.86a34.55,34.55,0,0,0-3.12,17.05c.15,4.13,1.55,8.85,2.35,9.63a2.18,2.18,0,0,0,.36.26c1.18.75,3,.32,6.55-1.64C84.35,375,87.1,365,87.1,365l-9.75-1.66,12.52-2.5L95,352.92l-9.36-1.7,12.72-2A187.88,187.88,0,0,1,111.52,331s0,0,0,0Z" style="fill:#fff;opacity:0.65"></path><path d="M107.92,331.13a57.6,57.6,0,0,0-13.85,3.37c-1.66.61-3.32,1.31-4.95,2.09-.82.39-1.62.8-2.42,1.23a40.33,40.33,0,0,0-10.62,8A25.75,25.75,0,0,0,72.43,351c-.13.24-.27.48-.39.72h0c-.31.63-.59,1.25-.85,1.86a34.55,34.55,0,0,0-3.12,17.05c.15,4.13,1.55,8.85,2.35,9.63a2.18,2.18,0,0,0,.36.26,2.21,2.21,0,0,0,.78.29c-.87-6.41,2.28-22.64,7-29.32,5-7,16.73-17,32.91-20.5v0A29,29,0,0,0,107.92,331.13Z" style="fill:#ba69c8;opacity:0.30000000000000004"></path><path d="M71.52,380.8a54.71,54.71,0,0,1,.91-14.16,46,46,0,0,1,4.7-13.43,39.88,39.88,0,0,1,9.51-10.62,52.73,52.73,0,0,1,12.2-7.31,0,0,0,0,1,.06,0,0,0,0,0,1,0,.05,69.43,69.43,0,0,0-11.73,7.86A50.81,50.81,0,0,0,82,348a31.5,31.5,0,0,0-4.31,5.53,45.17,45.17,0,0,0-4.85,13.19A54.55,54.55,0,0,0,71.6,380.8a0,0,0,1,1-.08,0Z" style="fill:#fafafa"></path></g></g></g><g id="freepik--character-2--inject-147"><g id="freepik--Character--inject-147"><g id="freepik--Bottom--inject-147"><path d="M379.39,338.88c-.2-4.1-1.84-45.37-1.84-45.37L397,308.71c-3.57,23.53-4.94,29.83-5.12,33.76h0a3.57,3.57,0,0,1,.07,1c-.15,4.67-5.49,7-9.7,10a76.08,76.08,0,0,1-11.33,6.94c-3,1.42-9.1,1.38-9.8-.56,5.12-3.68,11-7.69,15.14-11.94C378.21,345.92,379.62,343.79,379.39,338.88Z" style="fill:#f28f8f"></path><path d="M352.43,364.67c-.25,0-.72,2.81.64,4.05,1.57,1.44,6.22,3.85,12.49,3.22s9.7-2.46,12.25-4.48,6.15-4.86,9-5.4c2.64-.51,5.52-1.61,6.38-2.4s.85-4.39.85-4.39Z" style="fill:#263238"></path><path d="M391.94,341.33a1,1,0,0,1,.92.87c.16,1,.29,3.89.65,5.53a29.29,29.29,0,0,1,.37,8.77c-.4,1.84-4.71,3-7.47,4a34.87,34.87,0,0,0-9,5.34c-3,2.33-9.25,4.58-13.31,4.52-6.22-.08-10.19-1.88-11.37-4.15-1.45-2.81-.2-4.37,7-7.47,1.37-.59,6.19-3.26,7.84-4.23,4.45-2.63,8.9-6.34,11.05-11.16a2.76,2.76,0,0,1,1.07-1.46,2.26,2.26,0,0,1,1.39-.08,12,12,0,0,1,3.4,1.13c.95.49,2.29,1.06,2.23,2.28a3.82,3.82,0,0,1-.3,1.24c-.09.25-.17.58.05.74s.48,0,.67-.17a18.7,18.7,0,0,0,2-2.26,7.62,7.62,0,0,1,1.16-1.11,13,13,0,0,0,1.25-.76C392,342.44,391.9,341.9,391.94,341.33Z" style="fill:#BA68C8"></path><path d="M391.94,341.33a1,1,0,0,1,.92.87c.16,1,.29,3.89.65,5.53a29.29,29.29,0,0,1,.37,8.77c-.4,1.84-4.71,3-7.47,4a34.87,34.87,0,0,0-9,5.34c-3,2.33-9.25,4.58-13.31,4.52-6.22-.08-10.19-1.88-11.37-4.15-1.45-2.81-.2-4.37,7-7.47,1.37-.59,6.19-3.26,7.84-4.23,4.45-2.63,8.9-6.34,11.05-11.16a2.76,2.76,0,0,1,1.07-1.46,2.26,2.26,0,0,1,1.39-.08,12,12,0,0,1,3.4,1.13c.95.49,2.29,1.06,2.23,2.28a3.82,3.82,0,0,1-.3,1.24c-.09.25-.17.58.05.74s.48,0,.67-.17a18.7,18.7,0,0,0,2-2.26,7.62,7.62,0,0,1,1.16-1.11,13,13,0,0,0,1.25-.76C392,342.44,391.9,341.9,391.94,341.33Z" style="opacity:0.5"></path><path d="M358.58,359.21c9,.88,11.64,6.51,11.93,10a21.23,21.23,0,0,1-6.42,1.15c-6.22-.08-10.44-1.89-11.62-4.16C351.09,363.52,352.14,361.44,358.58,359.21Z" style="fill:#fafafa"></path><path d="M372.05,359.69a.52.52,0,0,0,.29-.09.44.44,0,0,0,.07-.62,10.54,10.54,0,0,0-8-3.44.44.44,0,0,0-.4.47.43.43,0,0,0,.47.41,9.76,9.76,0,0,1,7.27,3.1A.49.49,0,0,0,372.05,359.69Z" style="fill:#f0f0f0"></path><path d="M376,357.54a.37.37,0,0,0,.28-.09.43.43,0,0,0,.08-.61,10.54,10.54,0,0,0-8-3.44.44.44,0,0,0-.41.47.43.43,0,0,0,.47.4,9.82,9.82,0,0,1,7.28,3.1A.4.4,0,0,0,376,357.54Z" style="fill:#f0f0f0"></path><path d="M379.65,355.07a.47.47,0,0,0,.28-.09.44.44,0,0,0,.08-.62,10.59,10.59,0,0,0-8-3.44.44.44,0,0,0-.41.48.43.43,0,0,0,.48.4,9.78,9.78,0,0,1,7.27,3.1A.4.4,0,0,0,379.65,355.07Z" style="fill:#f0f0f0"></path><path d="M383.24,352.59a.42.42,0,0,0,.28-.08.44.44,0,0,0,.08-.62c-1.65-2.22-5.5-3.77-8.78-3.5a.44.44,0,0,0,.07.87c2.95-.23,6.54,1.19,8,3.16A.42.42,0,0,0,383.24,352.59Z" style="fill:#f0f0f0"></path><path d="M419.88,309l19.86-3.11c.79,13.21-.8,29-.13,41.4.13,2.33,1.55,18.09,1.07,22.95-.73,7.31-9.35,7-10.16,2.77S429.2,350.2,429,348.3c-.57-7.94-5.05-21-8.18-35.11C420.68,312.5,420,309.62,419.88,309Z" style="fill:#f28f8f"></path><path d="M427.55,376.22c.17,4.25.78,7.07,2.24,9.59s4.28,3.34,7.17,2.67,6.6-2.56,7.49-6.2a23.33,23.33,0,0,0,.19-10.1Z" style="fill:#263238"></path><path d="M439.54,345.72c1.18.11,1.43,5.82,2,11.53.62,6.12,2.4,8.68,3,13.71.65,5.73.3,8.29-1.77,11.71s-9.23,6.69-12.64,1.67c-2.78-4.09-2.81-8.57-2.45-14.28a143.81,143.81,0,0,0,.52-14.55c-.15-4.29-.37-8.45.67-8.91.07.63.13,1.43.2,2s.13,2.8.8,2.84a8.75,8.75,0,0,0,0-1.62,2,2,0,0,1,.35-1.38,2.26,2.26,0,0,1,1.32-.56,35,35,0,0,1,3.54-.48,17.43,17.43,0,0,1,1.77,0,4.49,4.49,0,0,1,1.5.24,1.05,1.05,0,0,1,.63.59,2.08,2.08,0,0,1,.05.66,4.62,4.62,0,0,0,.13,1.17c0,.17.15.38.32.34s.2-.2.2-.34c0-.69-.06-1.19-.08-2,0-.37-.06-.88-.06-1.25S439.56,346.09,439.54,345.72Z" style="fill:#BA68C8"></path><path d="M439.54,345.72c1.18.11,1.43,5.82,2,11.53.62,6.12,2.4,8.68,3,13.71.65,5.73.3,8.29-1.77,11.71s-9.23,6.69-12.64,1.67c-2.78-4.09-2.81-8.57-2.45-14.28a143.81,143.81,0,0,0,.52-14.55c-.15-4.29-.37-8.45.67-8.91.07.63.13,1.43.2,2s.13,2.8.8,2.84a8.75,8.75,0,0,0,0-1.62,2,2,0,0,1,.35-1.38,2.26,2.26,0,0,1,1.32-.56,35,35,0,0,1,3.54-.48,17.43,17.43,0,0,1,1.77,0,4.49,4.49,0,0,1,1.5.24,1.05,1.05,0,0,1,.63.59,2.08,2.08,0,0,1,.05.66,4.62,4.62,0,0,0,.13,1.17c0,.17.15.38.32.34s.2-.2.2-.34c0-.69-.06-1.19-.08-2,0-.37-.06-.88-.06-1.25S439.56,346.09,439.54,345.72Z" style="opacity:0.5"></path><path d="M444.78,374.28c.14,3.56-.1,6-1.72,8.67-2.07,3.43-9.8,6.69-13.21,1.67-1.7-2.49-2.11-5.42-2.3-8.4C429.72,372.44,441.53,371,444.78,374.28Z" style="fill:#fafafa"></path><path d="M430.7,370.05a.28.28,0,0,0,.15,0,17.29,17.29,0,0,1,10.23-.87.44.44,0,0,0,.54-.32.45.45,0,0,0-.32-.53,18,18,0,0,0-10.82.92.45.45,0,0,0-.22.59A.44.44,0,0,0,430.7,370.05Z" style="fill:#f0f0f0"></path><path d="M440.87,364.87a.43.43,0,0,0,.38-.29A.44.44,0,0,0,441,364c-5.28-1.89-10.58.71-10.8.82a.44.44,0,0,0-.2.59.45.45,0,0,0,.59.2c.05,0,5.2-2.55,10.11-.78A.37.37,0,0,0,440.87,364.87Z" style="fill:#f0f0f0"></path><path d="M440.64,360.84a.44.44,0,0,0,.12-.85,13.65,13.65,0,0,0-11,.79.44.44,0,1,0,.44.76,12.93,12.93,0,0,1,10.26-.72A.41.41,0,0,0,440.64,360.84Z" style="fill:#f0f0f0"></path><path d="M440.36,356.32a.45.45,0,0,0,.37-.28.44.44,0,0,0-.24-.57c-5.44-2.15-10.87.78-11.1.91a.43.43,0,0,0-.17.59.44.44,0,0,0,.6.18c.05,0,5.3-2.86,10.34-.86Z" style="fill:#ebebeb"></path><path d="M428.85,175.67c3.63,8.74,7.34,15.15,7.54,31.49C436.8,241.91,436,267,436,267c.17,3.07,1.65,7.59,3.44,23.4,1.5,13.25.76,33.59.76,33.59s-8.94,4.49-17.07,1c-3.06-11.34-8.34-40.94-11.62-56.12-3-13.78-5.82-33.93-5.82-33.93l-5.79,33.9s.74,13.64.14,21.66c-.7,9.33-5.52,35.43-5.52,35.43s-9.15,3.81-16.09-1.54c0,0-2.63-47-2.5-58.28.25-22,0-68.54,4.2-91.54Z" style="fill:#BA68C8"></path><path d="M428.85,175.67c3.63,8.74,7.34,15.15,7.54,31.49C436.8,241.91,436,267,436,267c.17,3.07,1.65,7.59,3.44,23.4,1.5,13.25.76,33.59.76,33.59s-8.94,4.49-17.07,1c-3.06-11.34-8.34-40.94-11.62-56.12-3-13.78-5.82-33.93-5.82-33.93l-5.79,33.9s.74,13.64.14,21.66c-.7,9.33-5.52,35.43-5.52,35.43s-9.15,3.81-16.09-1.54c0,0-2.63-47-2.5-58.28.25-22,0-68.54,4.2-91.54Z" style="opacity:0.30000000000000004"></path><path d="M440.66,320.67c-3.38,2-14,3.22-18.5,1.44l1.19,5.36s2,1.49,8.3,1.25,8.75-2.8,8.75-2.8Z" style="fill:#455a64"></path><path d="M395.52,321.36c-3.61,1.58-13.45,1.41-17.7-.94l.49,5.47s1.43,2.08,7.69,2.3,8.58-1.66,8.58-1.66Z" style="fill:#455a64"></path><path d="M405.66,234.92l-3.34-24.6s-14.61-2-19.84-7.21c0,0,6.54,9.59,16.45,11.32l3.81,20.4-2.82,33.7Z" style="opacity:0.15"></path></g><g id="freepik--Top--inject-147"><path d="M391.47,113.11c-7.19,0-11.2,2.84-16.8,10-5.18,6.64-17.8,23.86-17.8,23.86s-2-.76-10.7-8c-6.64-5.51-8.64-8.83-8.64-8.83l-6.26,11.53c2.21,1.82,10.28,13.22,15.42,18.94,7.16,8,11.66,8.4,17.94,3.58,9.45-7.25,24.82-27.77,24.82-27.77l2-22.13Z" style="fill:#f28f8f"></path><path d="M391.47,112.56c-5.54.57-8.82,1-14,6.68S361.6,139.8,361.6,139.8s3.45,11.24,12.9,15.58l19.08-20.57Z" style="fill:#ebebeb"></path><path d="M356.87,147c3.28,2.79,5.26,7.16,5.46,9.64.6-4.82-.49-8.85-4-11.66Z" style="fill:#b16668"></path><path d="M342.32,135.61c-2.46-2.36-1.53-3.72-2.68-6.21a11.85,11.85,0,0,0-6.76-5.51c-2.76-.67-5.45-2.34-6.89-2.61s-7.15-1.84-7.91-1.42-.06,1.45-.57,3.29-.36,9.5.28,10.64,1.81,3.34,4,3.64,2.68,1.91,5.48,2.93c1.37.49,2.37.42,3.06.71,1,.41,1.55,1.19,2.67,2.44Z" style="fill:#f28f8f"></path><path d="M321,120.15c-4.25-.84-7.22-1.55-8.26-1.17a43.57,43.57,0,0,0-4.41,1.86c-.45.33-.14,1.77,1.33,2.06a7.92,7.92,0,0,0,3.37-.35l6,1.42-1.47.44,2.6,1.61S322.18,120.83,321,120.15Z" style="fill:#f28f8f"></path><path d="M313.82,120.36a1.94,1.94,0,0,1-.76,2.19s-.69.2-1.35.32A3.24,3.24,0,0,0,313.82,120.36Z" style="fill:#b16668"></path><path d="M324.47,125.07c.86,3,.43,8-3.46,10a12.41,12.41,0,0,0,2.73-4.44A19.26,19.26,0,0,0,324.47,125.07Z" style="fill:#b16668;opacity:0.5"></path><path d="M329.47,128a12.88,12.88,0,0,0-.89,8.55c-2.13-3.84-.77-7.53.52-9.8Z" style="fill:#b16668"></path><path d="M323.41,120.69c.72.13,2.21.52,2.58.59,1.44.27,4.13,1.94,6.89,2.61s4,1.78,4.6,4.63c.07.33.27,1.54.37,1.84a10.25,10.25,0,0,1,.08,1.37c-.06,1-2.35,2.55-5.18,1.62a4.14,4.14,0,0,1-1.75-1.23,6.58,6.58,0,0,1-1.33-2.09,30.86,30.86,0,0,0-3-6.63A6.83,6.83,0,0,0,323.41,120.69Z" style="fill:#b16668"></path><path d="M321.6,136.26l-.57-.17L317,130a20,20,0,0,1,.51-6.82c.51-1.84-.2-2.87.57-3.29A4.16,4.16,0,0,1,320,120c.66,1.6.6,3.87,1.05,4.28s1.58-.5,2.23-1.57c-.08,2.13-2.44,2.64-2.44,2.64.06,1.62.21,3.13.21,3.13a3.31,3.31,0,0,1,2.05,3.25C323.13,132.57,322,135.22,321.6,136.26Z" style="fill:#b16668;opacity:0.5"></path><path d="M316.54,114.75l4.83-28.29s1.24,1.33,1.09,8.45-2.5,23.65-2.5,23.65l-1.64-.14Z" style="fill:#263238"></path><path d="M310.11,86.62a35,35,0,0,1,3.79,6.83c1.07,3,8,20,8,20l.75,4.48-1.36.26-4.09-4.57S312,96.2,310.92,92.5,309.61,85.9,310.11,86.62Z" style="fill:#455a64"></path><path d="M337.05,124.18c-2.09-3-5.63-3.47-8.05-5.11-3-2-7.15-5.62-7.15-5.62l.75,4.48,4.8,5.13c1.42,1.52,2.08,4.34,2.86,6.31s3.66,5.17,6.9,3.32S339.15,127.13,337.05,124.18Zm-1.16,6.34c-1.27.7-3,0-3.88-1.6s-.57-3.44.69-4.14,3,0,3.88,1.6S337.15,129.82,335.89,130.52Z" style="fill:#BA68C8"></path><path d="M337.05,124.18c-2.09-3-5.63-3.47-8.05-5.11-3-2-7.15-5.62-7.15-5.62l.75,4.48,4.8,5.13c1.42,1.52,2.08,4.34,2.86,6.31s3.66,5.17,6.9,3.32S339.15,127.13,337.05,124.18Zm-1.16,6.34c-1.27.7-3,0-3.88-1.6s-.57-3.44.69-4.14,3,0,3.88,1.6S337.15,129.82,335.89,130.52Z" style="opacity:0.30000000000000004"></path><path d="M320,112.4a1,1,0,1,1-1.36-.39A1,1,0,0,1,320,112.4Z" style="fill:#263238"></path><path d="M315.94,114.44s-.74,4-1.17,5.22-1.71,2.63-2.78,5.68.39,10.36,4.3,12.81,5.53.17,5.74-2-.95-3.55-1.7-8a62.43,62.43,0,0,1-1.05-9.7l-2.69-4Zm1.91,9.55a34.08,34.08,0,0,0,.78,6.54c.6,2.78,1.46,3.83,1.31,5.28-.13,1.18-1.58,1.63-3.16.16a10.41,10.41,0,0,1-3-7.54c-.08-3.44,1.36-5.45,2.76-5.94C317,122.31,317.82,122.49,317.85,124Z" style="fill:#BA68C8"></path><path d="M315.94,114.44s-.74,4-1.17,5.22-1.71,2.63-2.78,5.68.39,10.36,4.3,12.81,5.53.17,5.74-2-.95-3.55-1.7-8a62.43,62.43,0,0,1-1.05-9.7l-2.69-4Zm1.91,9.55a34.08,34.08,0,0,0,.78,6.54c.6,2.78,1.46,3.83,1.31,5.28-.13,1.18-1.58,1.63-3.16.16a10.41,10.41,0,0,1-3-7.54c-.08-3.44,1.36-5.45,2.76-5.94C317,122.31,317.82,122.49,317.85,124Z" style="opacity:0.30000000000000004"></path><path d="M335.08,129.67a2.86,2.86,0,0,1-3.12-1,7.13,7.13,0,0,1-1-1.77,6.85,6.85,0,0,0-1.24-1.87,10.54,10.54,0,0,1-1.95-2.22,3.88,3.88,0,0,1-.49-3.88,2.86,2.86,0,0,1,.92-1.24c.2-.18.59,0,1.62,1.51a14,14,0,0,0,2.8,2.81,11.5,11.5,0,0,1,3.61,4C336.9,127.48,336.68,129.14,335.08,129.67Z" style="fill:#f28f8f"></path><path d="M329.81,125.14A3.53,3.53,0,0,0,331,124a1.92,1.92,0,0,1-.86,1.52Z" style="fill:#b16668"></path><path d="M316.51,122.49c.57.74,1.09,1.45.34,1.54a7.32,7.32,0,0,0-2.45.72,2,2,0,0,0-.19,2.2c.46.87.72,1.48.72,1.48a2,2,0,0,0-.82,1.11c-.13.67-.09,1,.61,1.91a18.22,18.22,0,0,0,1.21,1.51,1.41,1.41,0,0,0-.12,1.11,22.82,22.82,0,0,0,1.81,2.78,2.54,2.54,0,0,0,1.59.81,11.06,11.06,0,0,0,2.4.07c.8,0,1.56.08,1.65-.73a1.36,1.36,0,0,0-.55-1.34h.89a1.31,1.31,0,0,0,.35-1.9c-.6-1-1.14-1-1.14-1a1.56,1.56,0,0,0,.2-1.5,3.93,3.93,0,0,0-2.38-2.28,11,11,0,0,1-2.47-1.11s-.16-1.33-.18-3.36C318,122.71,317.69,122,316.51,122.49Z" style="fill:#f28f8f"></path><path d="M319.77,132.6c1,.2,2.48.84,3,.05a3.22,3.22,0,0,1,.49.28l-.16.3a1.48,1.48,0,0,1-1.71.35,18.92,18.92,0,0,0-3.46-.8,2.42,2.42,0,0,1-1.85-1.29,12.87,12.87,0,0,0-1.22-1.91c-.33-.31-.71,0-.78.59a2,2,0,0,1,.05-.63,2,2,0,0,1,.82-1.11,20.62,20.62,0,0,0,2.06,3.32A7.13,7.13,0,0,0,319.77,132.6Z" style="fill:#b16668"></path><path d="M318.28,135a6.14,6.14,0,0,0,2.24.5c.91.08,2.12.09,2.12.09a1.58,1.58,0,0,1,.61,1A2.87,2.87,0,0,0,322,136c-.71-.13-2.68-.19-3.41-.41a5.34,5.34,0,0,1-1.59-1c-.51-.35-1.12-.48-.29.94a9.77,9.77,0,0,1-.89-1.47,1.41,1.41,0,0,1,.12-1.11A9.5,9.5,0,0,0,318.28,135Z" style="fill:#b16668"></path><path d="M321.61,137.73a8.81,8.81,0,0,0,.89,0,.81.81,0,0,0,.76-.46,1.7,1.7,0,0,0,0-.92,1.42,1.42,0,0,0-.52-.77l-.06.18h.87a.45.45,0,0,0,.32-.16,1.49,1.49,0,0,0,.4-1.15,2.07,2.07,0,0,0-.48-1.1,1.58,1.58,0,0,0-1-.7l.08.19a1.54,1.54,0,0,0,.3-1.26,2.88,2.88,0,0,0-.52-1.17,4.67,4.67,0,0,0-2-1.42,4.88,4.88,0,0,1,1.9,1.51,2.64,2.64,0,0,1,.45,1.11,1.4,1.4,0,0,1-.25,1.08l-.14.16.22,0a1.37,1.37,0,0,1,.82.61,2,2,0,0,1,.44,1,1.29,1.29,0,0,1-.32,1,.28.28,0,0,1-.18.1H322.4l.25.17a1.19,1.19,0,0,1,.49.65,1.56,1.56,0,0,1,0,.83.73.73,0,0,1-.64.45A8.67,8.67,0,0,1,321.61,137.73Z" style="fill:#b16668"></path><g id="freepik--chest--inject-147"><path d="M381,150.2c.36,5.79-3.07,36.72-3.07,36.72,15.29,9.06,44.79,8.84,55.12-2.31-.48-1.3-2.26-5.58-3-7.47-1.82-4.37-3.9-9.6-3.71-12.44l3.39-23.32a50.83,50.83,0,0,1-5.85-28l-12.94-1.15H398.42l-6.95.29c-2.7,2.38-6.88,8.51-10.82,15.47C375.85,136.51,375.88,144.48,381,150.2Z" style="fill:#f5f5f5"></path></g><g id="freepik--Head--inject-147"><path d="M413.77,105.27c1.66-1.94,2.66-5.7,6.58-10.09,5.45-6.09,8.28-17.23-.19-24.91-2-9.69-14.15-15.75-28.34-12a27,27,0,0,0-11.49,6.21c-3.13,2.64-4.34,6.37-2.05,9.88.79,1.21,1.71,2.13,1.63,3.56-.12,2.06-1.49,2.73-2.73,3.86s-1.82,3.26-.71,4.68A3.38,3.38,0,0,0,379.22,88a1.87,1.87,0,0,1-.45-2.38c.7-1,2.47-.76,3.46-.6a6.76,6.76,0,0,0,2.76,0c.51-.13.8-.54,1.32-.6,1.16-.12,1.94.94,2.75,1.57l5,3.86,10.62,8.27C405.16,98.56,413.72,105.33,413.77,105.27Z" style="fill:#263238"></path><path d="M428.26,79.72c-5.39,3.49-8-1-11.48-6.43s-6.56-9.61-1.17-13.1a11.63,11.63,0,1,1,12.65,19.53Z" style="fill:#263238"></path><path d="M428.78,86.37c-.46-1.68,1-3,2.14-4.41a5,5,0,0,0,.94-5.5c-.32-.71-1.11-1.83-2-1.75l-3.45,2.08c1.26,1.09,1.95,2,1.8,3.75s-1.7,3.26-1.59,5.12a3.21,3.21,0,0,0,2.66,3.06,2.12,2.12,0,0,0,2.15-1.56A1.55,1.55,0,0,1,428.78,86.37Z" style="fill:#263238"></path><path d="M423.48,86.83c-1.51-1.84-5.06-2.48-6.58-.48a5,5,0,0,0-1,2.26,1.8,1.8,0,0,1-1.51,1.52,1.71,1.71,0,0,1-1.64-.9,6.51,6.51,0,0,1-.45-2.4C410.92,75.42,408,73,400,75.06c-3.65-3.29-5.73-3.92-9.94-3.53-4.6.44-8.25,2.42-8,15.67.19,11.72,4.28,17.24,6.26,18.33s4.43,1.39,8.35,1.1l.6,6.55a8.08,8.08,0,0,0-.42,9.94,22.91,22.91,0,0,0,9.1-2.14c7.84-3.61,8.48-7.15,8.48-7.15L414.14,96s2.5,3.73,6.66.71C424.24,94.16,425.73,89.57,423.48,86.83Z" style="fill:#f28f8f"></path><path d="M399.53,85.54a1.77,1.77,0,0,0,1.5,2A1.68,1.68,0,0,0,403,86.07a1.8,1.8,0,0,0-1.51-2A1.67,1.67,0,0,0,399.53,85.54Z" style="fill:#263238"></path><path d="M384.8,80.94l3.75-1.72a2,2,0,0,0-2.67-1.06A2.16,2.16,0,0,0,384.8,80.94Z" style="fill:#263238"></path><path d="M400.5,79.64l3.6,2a2,2,0,0,0-.71-2.78A2.17,2.17,0,0,0,400.5,79.64Z" style="fill:#263238"></path><path d="M399.69,95.53l-6.79,2.08a3.56,3.56,0,0,0,4.76,2.24A3.33,3.33,0,0,0,399.69,95.53Z" style="fill:#9a4a4d"></path><path d="M395.7,100a3.72,3.72,0,0,1,3.8-3.25c.12,0,.23,0,.34,0a3.13,3.13,0,0,1-2.18,3A4,4,0,0,1,395.7,100Z" style="fill:#ffa8a7"></path><path d="M385.49,85.34a1.73,1.73,0,0,0,1.46,1.9,1.62,1.62,0,0,0,1.87-1.39,1.74,1.74,0,0,0-1.46-1.91A1.63,1.63,0,0,0,385.49,85.34Z" style="fill:#263238"></path><polygon points="395.06 83.5 394.4 93.39 389.28 91.44 395.06 83.5" style="fill:#b16668"></polygon><path d="M396.64,106.63c4.15-.5,12.95-2.45,14.56-5.64a9.64,9.64,0,0,1-3.5,4.53C405,107.44,396.86,109,396.86,109Z" style="fill:#b16668"></path></g><path d="M419.66,113.05c-5.05,9.82-6.73,24.39-6.73,24.39h1.95c.65-8.08,4.63-20.79,6.53-24.23Z" style="fill:#455a64"></path><path d="M391.86,112.54a79,79,0,0,0-10.61,24.16h2c3.46-13.54,8.56-20.79,10.46-24.24Z" style="fill:#455a64"></path><path d="M380,134.81l40.26.65s-1.57,24.75,0,35.94,8.14,27.66,9.32,52.73c0,0-9.94,4.47-28.12,3.91s-25.58-4.2-25.58-4.2,1.1-31.7,3.75-53.88C381.33,155.84,376.41,147.78,380,134.81Z" style="fill:#455a64"></path><path d="M379.64,170c3.51,2.33,35.45,5.07,47.25-1.2a23,23,0,0,1-.22-6.8s-19.83,8.11-46.67,1.84Z" style="fill:#37474f"></path><path d="M436.06,200.31a58.34,58.34,0,0,0-1.84-10.63,16.63,16.63,0,0,0-4.71.94,55.24,55.24,0,0,1-6.91,1.69,12.19,12.19,0,0,0-2.7.88c-.53.25-1.06.59-1.1.59-1.83-.17-6.78,3.57-3.56,4.53.87.26,1.84-.08,2.71.16a5,5,0,0,1,1.44.87,5,5,0,0,0,3.77,1.25c1.63-.23,3.09-1,4.76-.4s3,1.35,4.89,1.27A7.55,7.55,0,0,0,436.06,200.31Z" style="opacity:0.2"></path><path d="M432,182.07s-1.78-4.44-1.78-4.44c1.5-.11,3.87.59,6.79,1.07,1.32.21,2.64-.75,3.83-1.84A93.31,93.31,0,0,0,453,163.27L431,140.87s-7.42-10.06-5.49-25.66c7.46,1.39,9.88,1.4,16.14,8.35,5.57,6.18,22.84,25.29,27.45,33.25,3.27,5.64,3.69,8.17-2.16,14.65-2.61,2.88-6.75,6.37-12.87,11.18-1.46,1.15-3,2.46-5.4,4.37-1.5,1.21-2.42,2.32-4.15,3.81-2.83,2.45-5.14,4.63-8.62,6-.28.11-.52.28-.82.37-.68.22-1.32.44-2,.6a11.29,11.29,0,0,1-6.49-.12c-1.31-.45-2.76-.13-4.13-.21s-1.91-.9-3-1.37a8.72,8.72,0,0,0-3.06-.35c-.47,0-1.11-.06-1.24-.61-.23-.94.77-2,1.47-2.45a44.53,44.53,0,0,1,5.94-2.77C426.23,188.24,430.1,185.85,432,182.07Z" style="fill:#f28f8f"></path><path d="M453,163.27c2.44-2.88,7.91-4.92,10.15-5.12A14.05,14.05,0,0,0,451.75,162Z" style="fill:#b16668"></path><path d="M423.81,113.42c3.93-.28,7.52.5,9.86,2.1s6.15,4.11,13.08,12.58c6.7,8.19,9.38,11.7,9.38,11.7a20.68,20.68,0,0,1-13.3,13.4l-14.77-13.09S417.29,125.33,423.81,113.42Z" style="fill:#ebebeb"></path></g></g></g><g id="freepik--character-1--inject-147"><g id="freepik--character--inject-147"><path d="M257.48,348.37a1,1,0,0,1-.24,0,1,1,0,0,1-.74-1.22l16.87-68.19a1,1,0,0,1,1.22-.74,1,1,0,0,1,.74,1.22L258.47,347.6A1,1,0,0,1,257.48,348.37Z" style="fill:#e0e0e0"></path><path d="M262.36,348.78a1.24,1.24,0,0,0-.72-1L248.7,340.3a3.86,3.86,0,0,0-3.5,0l-36.61,21.12a1.23,1.23,0,0,0-.73,1V365a1.23,1.23,0,0,0,.73,1l12.93,7.47a3.88,3.88,0,0,0,3.51,0l36.61-21.12a1.24,1.24,0,0,0,.72-1Z" style="fill:#37474f"></path><path d="M221.52,370.92l-12.93-7.47a1.07,1.07,0,0,1,0-2L245.2,340.3a3.86,3.86,0,0,1,3.5,0l12.94,7.47a1.07,1.07,0,0,1,0,2L225,370.92A3.88,3.88,0,0,1,221.52,370.92Z" style="fill:#455a64"></path><path d="M245.79,335.2c-.72,3-8.45,5-13.86,5.85-4.36.68-9.54.5-12.14,2.29s-2.74,5.26,2.34,8.53c6.34,4.09,16.5.74,20.82.63s6.85.57,10.31.22c5-.5,6.6-2.47,7.08-4s.1-12.28-1.92-11.49c0,0,.17-.37-7.23.29C246,338,245.79,335.2,245.79,335.2Z" style="fill:#263238"></path><path d="M258.48,337.87c0-.17-.08-22-.08-22l-16.53-.61s3.08,16.68,2.95,18.87-5.73,5.33-11.6,6.54c-.9.18-3.15.65-4.09.75h-.06c-3.27.58-6.34,3.48-2.73,5.09s12.41-1.08,17.11-1.5C249.1,344.49,259,343.48,258.48,337.87Z" style="fill:#ffa8a7"></path><path d="M238.3,275.57c0,20.74,4.11,47.86,4.11,47.86s8.67,2.84,16.36-1.4l1.29-40.95Z" style="fill:#37474f"></path><path d="M225.2,347.09c-.72,3-8.45,5-13.86,5.85-4.37.68-9.54.5-12.15,2.29s-2.74,5.26,2.34,8.53c6.35,4.09,16.51.74,20.83.63s6.85.57,10.3.22c5-.5,6.61-2.48,7.09-4s.09-12.28-1.92-11.49c0,0,.16-.37-7.23.29C225.44,349.87,225.2,347.09,225.2,347.09Z" style="fill:#263238"></path><path d="M237.89,349.76c0-.17-.09-22-.09-22l-17.24-.31s3.8,16.38,3.67,18.56-5.73,5.34-11.6,6.54c-.9.19-3.15.66-4.1.76h-.05c-3.28.59-6.34,3.49-2.73,5.1s12.41-1.08,17.11-1.5C228.51,356.38,238.39,355.37,237.89,349.76Z" style="fill:#ffa8a7"></path><path d="M215.42,288.47c-.53,4.67.79,11.53,2.37,22.34,1.64,11.18,3,16.14,4.05,23.95,0,0,9.15,4.31,16-1.15l.23-39Z" style="fill:#455a64"></path><path d="M217.37,371.52l-.24,0a1,1,0,0,1-.75-1.23l16.87-68.19a1,1,0,1,1,2,.49l-16.87,68.19A1,1,0,0,1,217.37,371.52Z" style="fill:#e0e0e0"></path><path d="M327.71,392.75c-1-5.44-5-10.72-12.26-14.89-16.64-9.61-43.63-9.61-60.28,0-7.21,4.17-11.29,9.45-12.26,14.89h-.23v2.52h0c0,6.29,4.17,12.59,12.49,17.4,16.65,9.61,43.64,9.61,60.28,0,8.33-4.81,12.49-11.11,12.49-17.4h0v-2.52Z" style="fill:#BA68C8"></path><path d="M327.71,392.75c-1-5.44-5-10.72-12.26-14.89-16.64-9.61-43.63-9.61-60.28,0-7.21,4.17-11.29,9.45-12.26,14.89h-.23v2.52h0c0,6.29,4.17,12.59,12.49,17.4,16.65,9.61,43.64,9.61,60.28,0,8.33-4.81,12.49-11.11,12.49-17.4h0v-2.52Z" style="fill:#fff;opacity:0.5"></path><path d="M327.71,392.75c-1-5.44-5-10.72-12.26-14.89-16.64-9.61-43.63-9.61-60.28,0-7.21,4.17-11.29,9.45-12.26,14.89h-.23v2.52h0c0,6.29,4.17,12.59,12.49,17.4,16.65,9.61,43.64,9.61,60.28,0,8.33-4.81,12.49-11.11,12.49-17.4h0v-2.52Z" style="opacity:0.05"></path><path d="M255.17,410.15c16.65,9.61,43.64,9.61,60.28,0s16.65-25.19,0-34.81-43.63-9.61-60.28,0S238.52,400.54,255.17,410.15Z" style="fill:#BA68C8"></path><path d="M255.17,410.15c16.65,9.61,43.64,9.61,60.28,0s16.65-25.19,0-34.81-43.63-9.61-60.28,0S238.52,400.54,255.17,410.15Z" style="fill:#fff;opacity:0.85"></path><path d="M276.36,329.64v59.71h0c0,1.33.87,2.65,2.62,3.66a14,14,0,0,0,12.66,0c1.75-1,2.63-2.33,2.63-3.66h0V329.64Z" style="fill:#BA68C8"></path><path d="M276.36,329.64v59.71h0c0,1.33.87,2.65,2.62,3.66a14,14,0,0,0,12.66,0c1.75-1,2.63-2.33,2.63-3.66h0V329.64Z" style="fill:#fff;opacity:0.75"></path><path d="M276.36,329.64v59.71h0c0,1.33.87,2.65,2.62,3.66a14,14,0,0,0,12.66,0c1.75-1,2.63-2.33,2.63-3.66h0V329.64Z" style="opacity:0.05"></path><path d="M276.36,359a73.51,73.51,0,0,0,17.91,0V329.64H276.36Z" style="opacity:0.05"></path><path d="M256.71,292.33,237,303.73a21.21,21.21,0,0,1-6.86,2.42s-.4,6.58-.4,7.7c0,3.66,2.42,7.32,7.26,10.12l46.55,26.87a3.61,3.61,0,0,0,3.6,0l51.52-29.74a3,3,0,0,0,1.49-2.58v-1.38l.24-4.66-48.6-20.15C282.08,286.74,266.39,286.74,256.71,292.33Z" style="fill:#455a64"></path><path d="M292.16,281.54c-9.68-5.58-25.37-5.58-35.05,0L237.36,293c-4.84,2.79-7.26,6.45-7.26,10.11h0s-.4,6.58-.4,7.69c0,3.67,2.42,7.33,7.26,10.12l48.35,27.91,54.81-31.64.4-7.69Z" style="fill:#BA68C8"></path><path d="M292.16,281.54c-9.68-5.58-25.37-5.58-35.05,0L237.36,293c-4.84,2.79-7.26,6.45-7.26,10.11h0s-.4,6.58-.4,7.69c0,3.67,2.42,7.33,7.26,10.12l48.35,27.91,54.81-31.64.4-7.69Z" style="opacity:0.2"></path><path d="M257.11,281.54,237.36,293c-9.68,5.59-9.68,14.65,0,20.24l48.36,27.91,54.8-31.65-48.36-27.91C282.48,276,266.79,276,257.11,281.54Z" style="fill:#BA68C8"></path><path d="M317.7,296.65s-38.93-21-45.74-24.4-20-9.58-24.38-8.59-6.89,2.67-8.44,8.43c-.3,1.08-1.31,6.43-1.31,6.43s19.27,12.82,35.69,16.16S317.7,296.65,317.7,296.65Z" style="fill:#37474f"></path><path d="M319.59,287.43c1.73,9.29,1.66,18.19-5.31,24.06-5.07,4.26-25.81,19.22-42,12.41-18.06-7.6-40.53-26.34-40.53-26.34l-12.24-4.95s-4.32-2.77-4.15-3.89c1.84-12.34,10.71-16.66,22.92-13.15,12.82,3.69,41.17,15,41.17,15Z" style="fill:#455a64"></path><path d="M295,322.86c4.3-11.14,9.53-25.3,9.53-25.3l-17.76,3.68c-4.69,10.9-7.11,16.82-15.84,14.47s-39.11-18.15-39.11-18.15,22.47,18.74,40.53,26.34C279.54,327,287.7,325.63,295,322.86Z" style="opacity:0.1"></path><g id="freepik--character--inject-147"><polygon points="283.89 209.86 287.25 229.59 302.52 228.05 299.51 206.29 283.89 209.86" style="fill:#ffa8a7"></polygon><path d="M311.87,263.76c4.78-20.84,6.3-26.27,4.64-36-1.09-6.38-4.63-13.44-11.88-13-1.37.08-2.61.29-3.89.46.32,2.67-10.08,7.67-15.2,4.36-2.3.55-10.18,3.76-10.18,3.76-3,1.1-14.56,10.71-16.34,20.48-1.84,10.08,7.14,16.34,7.14,16.34-.44,8.45-.13,17.43.08,32.81,0,0,5.47,10.51,29.87,7.77,21.69-2.43,24.48-11.7,24.48-11.7A92.54,92.54,0,0,0,311.87,263.76Z" style="fill:#f0f0f0"></path><path d="M287.91,167.83c-5.28-2.3-15.24-.26-18.68,7.48s2.09,15.11,3.53,15.3S287.91,167.83,287.91,167.83Z" style="fill:#BA68C8"></path><path d="M287.91,167.83c-5.28-2.3-15.24-.26-18.68,7.48s2.09,15.11,3.53,15.3S287.91,167.83,287.91,167.83Z" style="opacity:0.4"></path><path d="M270.74,191s-3.94,6.08-3.44,6.63,3.38,1,3.38,1Z" style="fill:#f28f8f"></path><path d="M280.88,173.3c-3.4,2-9.26,5.56-10.21,18.45-1,13.24.95,17.76,2.82,19.4,1.27,1.11,9.95,1.42,12.37.66,4.07-1.29,12.25-6.9,16.08-13.89,4.5-8.22,5-18.91-.81-22.83C292.94,169.59,283.75,171.64,280.88,173.3Z" style="fill:#ffa8a7"></path><circle cx="285.12" cy="198.61" r="1.23" style="fill:#455a64"></circle><path d="M319.18,208.52c-.87-2.32-2.45-3.72-3.23-5.66s-.34-4.58-.06-6.67c.83-6.06,2-15.83-5.41-18.43a12.12,12.12,0,0,0-2-5.61c-1.26-1.5-5.56-5.9-13.79-6.4a34,34,0,0,0-11.36,1.05,22.08,22.08,0,0,0-3.61,1.35,10,10,0,0,1-1.62.62,9.32,9.32,0,0,0-2.77,1.7c-1,.74-2,1.33-2.88,2.15-2,1.83-2.36,4.51-2.17,7.11.17,2.35,1.58,4.08,3,5.85a11.58,11.58,0,0,1,1.92,3.36,6.29,6.29,0,0,1-.07,4.3,4.34,4.34,0,0,0,.56,4.07,3.62,3.62,0,0,0,3.76,1.45c-1.29-.54-1.11-2.13-.84-2.72.35-.76,1.25-1.21,1.91-1.68.83-.59,1-1.39,1.62-2.2,1.25-1.75,3.11-2.95,5.31-2.33,4.12,1.17,4,6.59.94,9.5s-5.29,1.24-5.35,1.21a8.16,8.16,0,0,0-3.85,3.11c-1,1.73-.41,4.29.71,5.82.87,1.17,2.64,4.18.12,5a1.6,1.6,0,0,1-2.3-1.32,4.83,4.83,0,0,0-1.17,1.79,5.57,5.57,0,0,0,.05,3.26c1,2.74,4.2,4,7.85,4a31,31,0,0,0,5.3-1,24.11,24.11,0,0,1,3.17-.3c2-.1,3.89.63,5.8,1.14a18.16,18.16,0,0,0,4.68.76c3.16,0,5.57-.69,7.82-2.77a8.6,8.6,0,0,0,2.41-6.78,5.21,5.21,0,0,1,1.15,2.4,4.67,4.67,0,0,1-.55,3.39,6.39,6.39,0,0,0,3-1.19,5.89,5.89,0,0,0,2.38-3.27A9.06,9.06,0,0,0,319.18,208.52Z" style="fill:#BA68C8"></path><path d="M319.18,208.52c-.87-2.32-2.45-3.72-3.23-5.66s-.34-4.58-.06-6.67c.83-6.06,2-15.83-5.41-18.43a12.12,12.12,0,0,0-2-5.61c-1.26-1.5-5.56-5.9-13.79-6.4a34,34,0,0,0-11.36,1.05,22.08,22.08,0,0,0-3.61,1.35,10,10,0,0,1-1.62.62,9.32,9.32,0,0,0-2.77,1.7c-1,.74-2,1.33-2.88,2.15-2,1.83-2.36,4.51-2.17,7.11.17,2.35,1.58,4.08,3,5.85a11.58,11.58,0,0,1,1.92,3.36,6.29,6.29,0,0,1-.07,4.3,4.34,4.34,0,0,0,.56,4.07,3.62,3.62,0,0,0,3.76,1.45c-1.29-.54-1.11-2.13-.84-2.72.35-.76,1.25-1.21,1.91-1.68.83-.59,1-1.39,1.62-2.2,1.25-1.75,3.11-2.95,5.31-2.33,4.12,1.17,4,6.59.94,9.5s-5.29,1.24-5.35,1.21a8.16,8.16,0,0,0-3.85,3.11c-1,1.73-.41,4.29.71,5.82.87,1.17,2.64,4.18.12,5a1.6,1.6,0,0,1-2.3-1.32,4.83,4.83,0,0,0-1.17,1.79,5.57,5.57,0,0,0,.05,3.26c1,2.74,4.2,4,7.85,4a31,31,0,0,0,5.3-1,24.11,24.11,0,0,1,3.17-.3c2-.1,3.89.63,5.8,1.14a18.16,18.16,0,0,0,4.68.76c3.16,0,5.57-.69,7.82-2.77a8.6,8.6,0,0,0,2.41-6.78,5.21,5.21,0,0,1,1.15,2.4,4.67,4.67,0,0,1-.55,3.39,6.39,6.39,0,0,0,3-1.19,5.89,5.89,0,0,0,2.38-3.27A9.06,9.06,0,0,0,319.18,208.52Z" style="opacity:0.2"></path><path d="M311.24,204.27c-1.37-2-.79-6.08.31-8.24-1.49,1.21-3.74,5.81-2,9s3.87,5,4.05,8.21a5.21,5.21,0,0,1,1.15,2.4,4.67,4.67,0,0,1-.55,3.39C318.92,213.25,312.6,206.28,311.24,204.27Z" style="opacity:0.2"></path></g><path d="M339,220.93l-6.69-3.87c-3-1.72-7.17-1.41-11.93,1.33L300.61,229.8c-9.68,5.59-18,19.17-18.58,30.33l-4.42,84.2,6.57,3.8,54.91-31.58S340.51,223.06,339,220.93Z" style="fill:#BA68C8"></path><path d="M297.14,340.68l4.61-77.33-18.34-10.59a30.48,30.48,0,0,0-1.38,7.37l-4.42,84.2,6.57,3.8Z" style="opacity:0.2"></path><path d="M339,220.93c-3-1.76-7.22-1.52-12,1.26L307.19,233.6c-9.68,5.59-18,19.17-18.59,30.33l-4.42,84.2,1.13.65,54.81-31.64,4.42-84.2c.3-5.74-1.51-9.73-4.65-11.49Z" style="fill:#455a64"></path><path d="M328.07,222.84l-19.75,11.41c-9.68,5.59-18,19.17-18.59,30.33l-4.42,84.2.11-.06-.11.06v2.54a3.67,3.67,0,0,0,1.76-.46l51.56-29.77a3,3,0,0,0,1.49-2.58v-1.32l4.42-84.25C345.12,221.77,337.75,217.26,328.07,222.84Z" style="fill:#37474f"></path><path d="M245.44,331.47a.9.9,0,0,1-1.35-.83l1.95-45.4-2-.11-2,45.4a2.92,2.92,0,0,0,1.38,2.65,3,3,0,0,0,1.54.43,2.92,2.92,0,0,0,1.46-.38l3.31-1.91-2-1.17Zm24.22,11.34-2.3,1.32a.91.91,0,0,1-1.35-.83L268,297.89l-2-.1L264,343.19a2.92,2.92,0,0,0,4.38,2.69l3.32-1.9Z" style="fill:#e0e0e0"></path><g style="opacity:0.1"><polygon points="249.76 331.32 247.73 330.15 246.14 331.07 248.17 332.24 249.76 331.32"></polygon><polygon points="271.69 343.98 269.66 342.81 268.07 343.72 270.1 344.89 271.69 343.98"></polygon></g><g style="opacity:0.1"><polygon points="265.76 301.29 267.72 302.42 267.96 297.89 265.94 297.79 265.76 301.29"></polygon><polygon points="244.02 285.13 243.83 288.63 245.8 289.76 246.04 285.24 244.02 285.13"></polygon></g><path d="M288,297.08l-55.81-32.34a9,9,0,0,0-8.17,0l-1.18.68a2.86,2.86,0,0,0-1.7,2.38c0,.71,0,3.31,0,4a2.89,2.89,0,0,0,1.7,2.35l55.6,32.22,9.35-5.4Z" style="fill:#37474f"></path><path d="M222.84,270.14c-2.26-1.3-2.26-3.42,0-4.72l1.18-.68a9,9,0,0,1,8.17,0L288,297.08l-9.56,5.28Z" style="fill:#455a64"></path><polygon points="288 297.07 287.79 301 278.44 306.4 278.44 302.36 288 297.07" style="fill:#263238"></polygon><path d="M275.36,223.28c-10.75,3.54-12.25,4.58-16.92,29.4-1.27,6.75-2.95,17.43-2.95,17.43a120.15,120.15,0,0,1-13-5.48c-4-2-6.77-5.63-10.35-8.19q-.57-.4-1.17-.78a3.05,3.05,0,0,0-2.77-.55c-.56.26-.93.83-1.5,1.07s-1.31.09-1.91.35-.84.65-1.35.77-1.1-.12-1.56.13a2.4,2.4,0,0,0-.66.72,3,3,0,0,1-1.77,1.18,3.72,3.72,0,0,0-1.72.82,2.86,2.86,0,0,0-.6,2.12c0,.74,0,1.5.05,2.23s.23,1.59.32,2.37a11.47,11.47,0,0,0,.43,2.19,5.12,5.12,0,0,0,3.21,2.85V270.1a4.76,4.76,0,0,1,.27-2.19.79.79,0,0,1,.41-.31.91.91,0,0,1,.76.16,3.48,3.48,0,0,1,.58.57,10.51,10.51,0,0,0,6.57,3.63,25.77,25.77,0,0,1,2.8.26,14.15,14.15,0,0,1,4.43,2.17c1.4,1,15.24,9.31,20.24,12.4s10.92,3.86,13.67-5.2c2.44-7.2,5.1-23.31,6.9-32C280.37,237.08,279.7,227.91,275.36,223.28Z" style="fill:#ffa8a7"></path><path d="M255.49,270.11l-1.22-.43c-2.16,7.12,1,11.11,1,11.11C254.12,276.75,255.49,270.11,255.49,270.11Z" style="fill:#f28f8f"></path></g></g></svg>